<svg width="390" height="574" viewBox="0 0 390 574" fill="none" xmlns="http://www.w3.org/2000/svg">
<g clip-path="url(#clip0_324_808)">
<rect y="574" width="574" height="390" rx="32" transform="rotate(-90 0 574)" fill="#004C8F"/>
<path d="M173 520.534V522.295C172.493 522.4 172.048 522.582 171.665 522.842C171.281 523.098 170.959 523.411 170.699 523.78C170.434 524.144 170.235 524.549 170.102 524.994C169.97 525.439 169.903 525.903 169.903 526.386C169.903 527.267 170.126 528.065 170.571 528.78C171.016 529.49 171.672 530.056 172.538 530.477C173.405 530.894 174.468 531.102 175.727 531.102C176.987 531.102 178.05 530.894 178.916 530.477C179.783 530.056 180.438 529.49 180.884 528.78C181.329 528.065 181.551 527.267 181.551 526.386C181.551 525.903 181.485 525.439 181.352 524.994C181.22 524.549 181.023 524.144 180.763 523.78C180.498 523.411 180.173 523.098 179.79 522.842C179.402 522.582 178.956 522.4 178.455 522.295V520.534C179.198 520.667 179.863 520.908 180.45 521.259C181.037 521.609 181.537 522.045 181.949 522.565C182.356 523.086 182.666 523.671 182.879 524.32C183.092 524.964 183.199 525.652 183.199 526.386C183.199 527.627 182.896 528.73 182.29 529.696C181.684 530.662 180.822 531.422 179.705 531.976C178.587 532.53 177.261 532.807 175.727 532.807C174.193 532.807 172.867 532.53 171.75 531.976C170.633 531.422 169.771 530.662 169.165 529.696C168.559 528.73 168.256 527.627 168.256 526.386C168.256 525.652 168.362 524.964 168.575 524.32C168.788 523.671 169.101 523.086 169.513 522.565C169.92 522.045 170.417 521.609 171.004 521.259C171.587 520.908 172.252 520.667 173 520.534ZM183.256 514.705C183.256 515.396 183.125 516.024 182.865 516.587C182.6 517.15 182.219 517.598 181.722 517.929C181.22 518.261 180.614 518.426 179.903 518.426C179.278 518.426 178.772 518.303 178.384 518.057C177.991 517.811 177.683 517.482 177.46 517.07C177.238 516.658 177.072 516.203 176.963 515.706C176.849 515.204 176.759 514.7 176.693 514.194C176.608 513.531 176.544 512.993 176.501 512.581C176.454 512.165 176.376 511.862 176.267 511.672C176.158 511.478 175.969 511.381 175.699 511.381H175.642C174.941 511.381 174.397 511.573 174.009 511.956C173.62 512.335 173.426 512.91 173.426 513.682C173.426 514.482 173.601 515.11 173.952 515.564C174.302 516.019 174.676 516.338 175.074 516.523L174.506 518.114C173.843 517.83 173.327 517.451 172.957 516.978C172.583 516.499 172.323 515.979 172.176 515.415C172.025 514.847 171.949 514.288 171.949 513.739C171.949 513.389 171.991 512.986 172.077 512.532C172.157 512.072 172.325 511.63 172.581 511.203C172.837 510.773 173.223 510.415 173.739 510.131C174.255 509.847 174.946 509.705 175.812 509.705H183V511.381H181.523V511.466C181.759 511.58 182.013 511.769 182.283 512.034C182.553 512.3 182.782 512.652 182.972 513.093C183.161 513.533 183.256 514.07 183.256 514.705ZM181.75 514.449C181.75 513.786 181.62 513.228 181.359 512.773C181.099 512.314 180.763 511.968 180.351 511.736C179.939 511.499 179.506 511.381 179.051 511.381H177.517C177.602 511.452 177.68 511.608 177.751 511.85C177.818 512.087 177.877 512.361 177.929 512.674C177.976 512.981 178.019 513.282 178.057 513.576C178.09 513.864 178.118 514.099 178.142 514.279C178.199 514.714 178.291 515.122 178.419 515.5C178.542 515.874 178.729 516.177 178.98 516.409C179.226 516.637 179.562 516.75 179.989 516.75C180.571 516.75 181.011 516.535 181.31 516.104C181.603 515.668 181.75 515.117 181.75 514.449ZM183 506.646H172.091V505.026H173.739V504.913C173.199 504.714 172.761 504.354 172.425 503.833C172.089 503.312 171.92 502.725 171.92 502.072C171.92 501.949 171.923 501.795 171.928 501.61C171.932 501.425 171.939 501.286 171.949 501.191H173.653C173.639 501.248 173.618 501.378 173.589 501.582C173.556 501.781 173.54 501.991 173.54 502.214C173.54 502.744 173.651 503.218 173.874 503.634C174.091 504.046 174.394 504.373 174.783 504.614C175.166 504.851 175.604 504.969 176.097 504.969H183V506.646ZM183.227 495.417C183.227 496.326 182.998 497.129 182.538 497.825C182.074 498.521 181.421 499.065 180.578 499.458C179.731 499.851 178.729 500.048 177.574 500.048C176.428 500.048 175.434 499.851 174.591 499.458C173.748 499.065 173.097 498.518 172.638 497.817C172.179 497.117 171.949 496.307 171.949 495.388C171.949 494.678 172.067 494.117 172.304 493.705C172.536 493.289 172.801 492.971 173.099 492.754C173.393 492.531 173.634 492.358 173.824 492.235V492.093H168.455V490.417H183V492.036H181.324V492.235C181.523 492.358 181.774 492.533 182.077 492.761C182.375 492.988 182.643 493.312 182.879 493.734C183.111 494.155 183.227 494.716 183.227 495.417ZM181.722 495.19C181.722 494.517 181.546 493.949 181.196 493.485C180.841 493.021 180.351 492.668 179.726 492.427C179.096 492.185 178.369 492.065 177.545 492.065C176.731 492.065 176.018 492.183 175.408 492.42C174.792 492.656 174.314 493.007 173.973 493.471C173.627 493.935 173.455 494.508 173.455 495.19C173.455 495.9 173.637 496.492 174.001 496.965C174.361 497.434 174.851 497.787 175.472 498.023C176.087 498.255 176.778 498.371 177.545 498.371C178.322 498.371 179.027 498.253 179.662 498.016C180.292 497.775 180.794 497.42 181.168 496.951C181.537 496.478 181.722 495.89 181.722 495.19ZM168.455 469.728H183V471.433L171.58 479.359V479.501H183V481.262H168.455V479.558L179.903 471.603V471.461H168.455V469.728ZM178.54 459.556H172.091V457.88H183V459.556H181.153V459.669C181.707 459.925 182.179 460.323 182.567 460.863C182.95 461.402 183.142 462.084 183.142 462.908C183.142 463.59 182.993 464.196 182.695 464.726C182.392 465.257 181.937 465.673 181.331 465.976C180.72 466.279 179.951 466.431 179.023 466.431H172.091V464.755H178.909C179.705 464.755 180.339 464.532 180.812 464.087C181.286 463.637 181.523 463.064 181.523 462.368C181.523 461.952 181.416 461.528 181.203 461.097C180.99 460.661 180.663 460.297 180.223 460.003C179.783 459.705 179.222 459.556 178.54 459.556ZM183 454.81H172.091V453.19H173.795V453.048C173.213 452.821 172.761 452.454 172.439 451.947C172.112 451.441 171.949 450.832 171.949 450.122C171.949 449.402 172.112 448.804 172.439 448.325C172.761 447.842 173.213 447.466 173.795 447.196V447.082C173.232 446.803 172.785 446.384 172.453 445.825C172.117 445.267 171.949 444.597 171.949 443.815C171.949 442.84 172.254 442.042 172.865 441.422C173.471 440.802 174.416 440.491 175.699 440.491H183V442.168H175.699C174.894 442.168 174.319 442.388 173.973 442.828C173.627 443.268 173.455 443.787 173.455 444.384C173.455 445.151 173.687 445.745 174.151 446.166C174.61 446.588 175.192 446.798 175.898 446.798H183V448.503H175.528C174.908 448.503 174.409 448.704 174.03 449.107C173.646 449.509 173.455 450.027 173.455 450.662C173.455 451.098 173.571 451.505 173.803 451.884C174.035 452.258 174.357 452.561 174.768 452.793C175.176 453.02 175.647 453.134 176.182 453.134H183V454.81ZM183 437.2H168.455V435.523H173.824V435.381C173.634 435.258 173.393 435.088 173.099 434.87C172.801 434.647 172.536 434.33 172.304 433.918C172.067 433.502 171.949 432.938 171.949 432.228C171.949 431.309 172.179 430.5 172.638 429.799C173.097 429.098 173.748 428.551 174.591 428.158C175.434 427.765 176.428 427.569 177.574 427.569C178.729 427.569 179.731 427.765 180.578 428.158C181.421 428.551 182.074 429.096 182.538 429.792C182.998 430.488 183.227 431.29 183.227 432.2C183.227 432.9 183.111 433.461 182.879 433.883C182.643 434.304 182.375 434.629 182.077 434.856C181.774 435.083 181.523 435.258 181.324 435.381V435.58H183V437.2ZM177.545 435.552C178.369 435.552 179.096 435.431 179.726 435.19C180.351 434.948 180.841 434.595 181.196 434.131C181.546 433.667 181.722 433.099 181.722 432.427C181.722 431.726 181.537 431.141 181.168 430.673C180.794 430.199 180.292 429.844 179.662 429.607C179.027 429.366 178.322 429.245 177.545 429.245C176.778 429.245 176.087 429.363 175.472 429.6C174.851 429.832 174.361 430.185 174.001 430.658C173.637 431.127 173.455 431.717 173.455 432.427C173.455 433.109 173.627 433.682 173.973 434.146C174.314 434.61 174.792 434.96 175.408 435.197C176.018 435.433 176.731 435.552 177.545 435.552ZM183.227 420.431C183.227 421.482 182.995 422.389 182.531 423.151C182.062 423.909 181.409 424.494 180.571 424.906C179.728 425.313 178.748 425.516 177.631 425.516C176.513 425.516 175.528 425.313 174.676 424.906C173.819 424.494 173.152 423.921 172.673 423.187C172.19 422.448 171.949 421.586 171.949 420.602C171.949 420.033 172.044 419.472 172.233 418.918C172.422 418.364 172.73 417.86 173.156 417.406C173.578 416.951 174.136 416.589 174.832 416.319C175.528 416.049 176.385 415.914 177.403 415.914H178.114V424.323H176.665V417.619C176.049 417.619 175.5 417.742 175.017 417.988C174.534 418.229 174.153 418.575 173.874 419.025C173.594 419.47 173.455 419.996 173.455 420.602C173.455 421.269 173.62 421.847 173.952 422.335C174.278 422.817 174.705 423.189 175.23 423.45C175.756 423.71 176.319 423.84 176.92 423.84H177.886C178.71 423.84 179.409 423.698 179.982 423.414C180.55 423.125 180.983 422.725 181.281 422.214C181.575 421.702 181.722 421.108 181.722 420.431C181.722 419.991 181.66 419.593 181.537 419.238C181.409 418.878 181.22 418.568 180.969 418.308C180.713 418.047 180.396 417.846 180.017 417.704L180.472 416.085C181.021 416.255 181.504 416.541 181.92 416.944C182.332 417.346 182.654 417.844 182.886 418.435C183.114 419.027 183.227 419.692 183.227 420.431ZM183 413.364H172.091V411.745H173.739V411.631C173.199 411.433 172.761 411.073 172.425 410.552C172.089 410.031 171.92 409.444 171.92 408.79C171.92 408.667 171.923 408.513 171.928 408.329C171.932 408.144 171.939 408.004 171.949 407.91H173.653C173.639 407.967 173.618 408.097 173.589 408.3C173.556 408.499 173.54 408.71 173.54 408.933C173.54 409.463 173.651 409.936 173.874 410.353C174.091 410.765 174.394 411.092 174.783 411.333C175.166 411.57 175.604 411.688 176.097 411.688H183V413.364Z" fill="white" fill-opacity="0.7"/>
<g clip-path="url(#clip1_324_808)">
<path d="M278 574V0H358C375.673 0 390 14.3269 390 32V542C390 559.673 375.673 574 358 574H278Z" fill="#ED232A" fill-opacity="0.7"/>
<path d="M325 532.402H310.455V523.283H312.344V530.207H316.776V523.759H318.658V530.207H323.111V523.197H325V532.402ZM314.091 518.846L318.338 516.438L314.091 514.009V511.686L319.545 515.088L325 511.658V513.98L320.923 516.438L325 518.888V521.218L319.545 517.823L314.091 521.175V518.846ZM329.091 509.506H314.091V507.432H315.859V507.255C315.632 507.132 315.369 506.954 315.071 506.722C314.773 506.49 314.512 506.168 314.29 505.756C314.062 505.344 313.949 504.8 313.949 504.123C313.949 503.242 314.171 502.456 314.616 501.765C315.062 501.073 315.703 500.531 316.541 500.138C317.379 499.74 318.388 499.542 319.567 499.542C320.746 499.542 321.757 499.738 322.599 500.131C323.437 500.524 324.084 501.064 324.538 501.75C324.988 502.437 325.213 503.221 325.213 504.101C325.213 504.764 325.102 505.306 324.879 505.728C324.657 506.144 324.396 506.471 324.098 506.708C323.8 506.944 323.535 507.127 323.303 507.255V507.382H329.091V509.506ZM319.545 507.425C320.312 507.425 320.985 507.314 321.562 507.091C322.14 506.869 322.592 506.547 322.919 506.125C323.241 505.704 323.402 505.188 323.402 504.577C323.402 503.943 323.234 503.412 322.898 502.986C322.557 502.56 322.095 502.238 321.513 502.02C320.93 501.798 320.275 501.686 319.545 501.686C318.826 501.686 318.179 501.795 317.607 502.013C317.034 502.226 316.581 502.548 316.25 502.979C315.919 503.405 315.753 503.938 315.753 504.577C315.753 505.193 315.911 505.713 316.229 506.14C316.546 506.561 316.989 506.881 317.557 507.098C318.125 507.316 318.788 507.425 319.545 507.425ZM325 497.162H314.091V495.039H325V497.162ZM312.408 496.09C312.408 496.459 312.285 496.776 312.038 497.042C311.787 497.302 311.489 497.432 311.143 497.432C310.793 497.432 310.495 497.302 310.249 497.042C309.998 496.776 309.872 496.459 309.872 496.09C309.872 495.721 309.998 495.406 310.249 495.145C310.495 494.88 310.793 494.748 311.143 494.748C311.489 494.748 311.787 494.88 312.038 495.145C312.285 495.406 312.408 495.721 312.408 496.09ZM325 492.182H314.091V490.129H315.824V490.016C315.237 489.817 314.775 489.466 314.439 488.964C314.098 488.458 313.928 487.885 313.928 487.246C313.928 487.113 313.932 486.957 313.942 486.777C313.951 486.592 313.963 486.448 313.977 486.344H316.009C315.985 486.429 315.959 486.58 315.93 486.798C315.897 487.016 315.881 487.234 315.881 487.452C315.881 487.954 315.987 488.401 316.2 488.794C316.409 489.182 316.7 489.49 317.074 489.717C317.443 489.945 317.865 490.058 318.338 490.058H325V492.182ZM329.091 482.832C329.091 483.149 329.065 483.438 329.013 483.698C328.965 483.959 328.913 484.153 328.857 484.281L327.116 483.769C327.221 483.381 327.266 483.035 327.251 482.732C327.237 482.429 327.124 482.162 326.911 481.93C326.697 481.693 326.349 481.485 325.866 481.305L325.142 481.042L314.091 485.033V482.761L322.557 479.998V479.884L314.091 477.121V474.842L326.456 479.337C327.024 479.546 327.505 479.811 327.898 480.133C328.295 480.455 328.594 480.838 328.793 481.283C328.991 481.728 329.091 482.245 329.091 482.832ZM325 462.674V467.382H310.455V462.525C310.455 461.099 310.746 459.875 311.328 458.853C311.906 457.83 312.737 457.046 313.821 456.502C314.901 455.953 316.196 455.678 317.706 455.678C319.221 455.678 320.523 455.955 321.612 456.509C322.701 457.058 323.539 457.854 324.126 458.895C324.709 459.937 325 461.196 325 462.674ZM323.082 465.188V462.794C323.082 461.686 322.874 460.766 322.457 460.032C322.036 459.298 321.428 458.748 320.632 458.384C319.832 458.019 318.857 457.837 317.706 457.837C316.565 457.837 315.597 458.019 314.801 458.384C314.006 458.744 313.402 459.281 312.99 459.996C312.578 460.711 312.372 461.599 312.372 462.659V465.188H323.082ZM325.241 449.945C325.241 450.636 325.114 451.261 324.858 451.82C324.598 452.378 324.221 452.821 323.729 453.148C323.236 453.47 322.633 453.631 321.918 453.631C321.302 453.631 320.795 453.512 320.398 453.276C320 453.039 319.685 452.719 319.453 452.317C319.221 451.914 319.046 451.464 318.928 450.967C318.809 450.47 318.719 449.964 318.658 449.447C318.582 448.794 318.52 448.264 318.473 447.857C318.421 447.449 318.338 447.153 318.224 446.969C318.111 446.784 317.926 446.692 317.67 446.692H317.621C317 446.692 316.52 446.867 316.179 447.217C315.838 447.563 315.668 448.079 315.668 448.766C315.668 449.481 315.826 450.044 316.143 450.456C316.456 450.863 316.804 451.145 317.188 451.301L316.733 453.297C316.07 453.06 315.535 452.714 315.128 452.26C314.716 451.801 314.418 451.273 314.233 450.676C314.044 450.08 313.949 449.452 313.949 448.794C313.949 448.358 314.001 447.897 314.105 447.409C314.205 446.917 314.389 446.457 314.659 446.031C314.929 445.6 315.315 445.248 315.817 444.973C316.314 444.698 316.96 444.561 317.756 444.561H325V446.635H323.509V446.72C323.783 446.857 324.053 447.063 324.318 447.338C324.583 447.613 324.804 447.965 324.979 448.396C325.154 448.827 325.241 449.343 325.241 449.945ZM323.537 449.483C323.537 448.896 323.421 448.394 323.189 447.977C322.957 447.556 322.654 447.236 322.28 447.018C321.901 446.796 321.496 446.685 321.065 446.685H319.659C319.735 446.76 319.806 446.907 319.872 447.125C319.934 447.338 319.988 447.582 320.036 447.857C320.078 448.131 320.118 448.399 320.156 448.659C320.189 448.92 320.218 449.137 320.241 449.312C320.294 449.724 320.381 450.101 320.504 450.442C320.627 450.778 320.805 451.048 321.037 451.251C321.264 451.45 321.567 451.55 321.946 451.55C322.472 451.55 322.869 451.356 323.139 450.967C323.404 450.579 323.537 450.084 323.537 449.483ZM314.091 436.64H315.795V442.599H314.091V436.64ZM311.477 441.001V438.877H321.797C322.209 438.877 322.519 438.816 322.727 438.693C322.931 438.57 323.071 438.411 323.146 438.217C323.217 438.018 323.253 437.803 323.253 437.571C323.253 437.4 323.241 437.251 323.217 437.123C323.194 436.995 323.175 436.896 323.161 436.825L324.915 436.441C324.962 436.565 325.009 436.74 325.057 436.967C325.109 437.194 325.137 437.478 325.142 437.819C325.152 438.378 325.052 438.899 324.844 439.382C324.635 439.865 324.313 440.255 323.878 440.554C323.442 440.852 322.895 441.001 322.237 441.001H311.477ZM325.22 429.707C325.22 430.781 324.991 431.707 324.531 432.484C324.067 433.255 323.416 433.852 322.578 434.273C321.735 434.69 320.748 434.898 319.616 434.898C318.499 434.898 317.514 434.69 316.662 434.273C315.81 433.852 315.144 433.265 314.666 432.512C314.188 431.754 313.949 430.869 313.949 429.856C313.949 429.24 314.051 428.644 314.254 428.066C314.458 427.488 314.777 426.97 315.213 426.511C315.649 426.051 316.214 425.689 316.911 425.424C317.602 425.159 318.442 425.026 319.432 425.026H320.185V433.698H318.594V427.107C318.035 427.107 317.54 427.221 317.109 427.448C316.674 427.675 316.33 427.995 316.08 428.407C315.829 428.814 315.703 429.292 315.703 429.842C315.703 430.438 315.85 430.959 316.143 431.404C316.432 431.844 316.811 432.185 317.28 432.427C317.744 432.664 318.248 432.782 318.793 432.782H320.036C320.765 432.782 321.385 432.654 321.896 432.398C322.408 432.138 322.798 431.776 323.068 431.312C323.333 430.848 323.466 430.306 323.466 429.685C323.466 429.283 323.409 428.916 323.295 428.585C323.177 428.253 323.002 427.967 322.77 427.725C322.538 427.484 322.251 427.299 321.911 427.171L322.273 425.161C322.865 425.322 323.383 425.611 323.828 426.028C324.268 426.44 324.612 426.958 324.858 427.583C325.099 428.203 325.22 428.911 325.22 429.707Z" fill="white" fill-opacity="0.7"/>
</g>
<path d="M315.185 393.321V395.537C314.711 395.622 314.295 395.781 313.935 396.013C313.575 396.245 313.269 396.529 313.018 396.865C312.768 397.201 312.578 397.578 312.45 397.994C312.322 398.406 312.259 398.844 312.259 399.308C312.259 400.146 312.469 400.897 312.891 401.56C313.312 402.218 313.93 402.739 314.744 403.122C315.559 403.501 316.553 403.69 317.727 403.69C318.911 403.69 319.91 403.501 320.724 403.122C321.539 402.739 322.154 402.215 322.571 401.553C322.988 400.89 323.196 400.144 323.196 399.315C323.196 398.856 323.134 398.42 323.011 398.009C322.884 397.592 322.696 397.215 322.45 396.879C322.204 396.543 321.903 396.259 321.548 396.027C321.188 395.79 320.777 395.627 320.312 395.537L320.32 393.321C321.035 393.439 321.693 393.669 322.294 394.01C322.891 394.346 323.407 394.779 323.842 395.31C324.273 395.835 324.607 396.437 324.844 397.114C325.08 397.791 325.199 398.529 325.199 399.33C325.199 400.589 324.901 401.711 324.304 402.696C323.703 403.681 322.843 404.457 321.726 405.026C320.608 405.589 319.276 405.871 317.727 405.871C316.174 405.871 314.841 405.587 313.729 405.018C312.611 404.45 311.754 403.674 311.158 402.689C310.556 401.704 310.256 400.584 310.256 399.33C310.256 398.558 310.367 397.838 310.589 397.17C310.807 396.498 311.129 395.894 311.555 395.359C311.977 394.824 312.493 394.382 313.104 394.031C313.71 393.681 314.403 393.444 315.185 393.321ZM310.455 389.424L322.301 385.375V385.212L310.455 381.164V378.792L325 384.026V386.561L310.455 391.796V389.424ZM310.455 375.42L322.301 371.371V371.208L310.455 367.16V364.788L325 370.022V372.558L310.455 377.792V375.42Z" fill="white" fill-opacity="0.7"/>
</g>
<rect x="0.5" y="573.5" width="573" height="389" rx="31.5" transform="rotate(-90 0.5 573.5)" stroke="url(#paint0_linear_324_808)"/>
<defs>
<linearGradient id="paint0_linear_324_808" x1="-8.55327e-06" y1="964" x2="574" y2="574" gradientUnits="userSpaceOnUse">
<stop stop-color="white" stop-opacity="0.4"/>
<stop offset="1" stop-opacity="0.2"/>
</linearGradient>
<clipPath id="clip0_324_808">
<rect y="574" width="574" height="390" rx="32" transform="rotate(-90 0 574)" fill="white"/>
</clipPath>
<clipPath id="clip1_324_808">
<path d="M278 574V0H358C375.673 0 390 14.3269 390 32V542C390 559.673 375.673 574 358 574H278Z" fill="white"/>
</clipPath>
</defs>
</svg>
