<svg width="390" height="574" viewBox="0 0 390 574" fill="none" xmlns="http://www.w3.org/2000/svg">
<g clip-path="url(#clip0_324_921)">
<rect y="574" width="574" height="390" rx="32" transform="rotate(-90 0 574)" fill="white"/>
<path d="M-40.0301 68.7628C-56.0297 52.7632 -56.0297 26.8226 -40.0301 10.823L84.2372 -113.444C100.237 -129.444 126.177 -129.444 142.177 -113.444L266.444 10.823C282.444 26.8226 282.444 52.7632 266.444 68.7628L142.177 193.03C126.177 209.03 100.237 209.03 84.2372 193.03L-40.0301 68.7628Z" fill="url(#paint0_linear_324_921)" fill-opacity="0.8"/>
<path d="M-40.0301 68.7628C-56.0297 52.7632 -56.0297 26.8226 -40.0301 10.823L84.2372 -113.444C100.237 -129.444 126.177 -129.444 142.177 -113.444L266.444 10.823C282.444 26.8226 282.444 52.7632 266.444 68.7628L142.177 193.03C126.177 209.03 100.237 209.03 84.2372 193.03L-40.0301 68.7628Z" fill="#00B5EF" fill-opacity="0.2"/>
<path d="M-198.03 186.763C-214.03 170.763 -214.03 144.823 -198.03 128.823L-73.7628 4.55569C-57.7632 -11.444 -31.8226 -11.444 -15.823 4.55566L108.444 128.823C124.444 144.823 124.444 170.763 108.444 186.763L-15.823 311.03C-31.8226 327.03 -57.7632 327.03 -73.7628 311.03L-198.03 186.763Z" fill="url(#paint1_linear_324_921)" fill-opacity="0.8"/>
<path d="M-198.03 186.763C-214.03 170.763 -214.03 144.823 -198.03 128.823L-73.7628 4.55569C-57.7632 -11.444 -31.8226 -11.444 -15.823 4.55566L108.444 128.823C124.444 144.823 124.444 170.763 108.444 186.763L-15.823 311.03C-31.8226 327.03 -57.7632 327.03 -73.7628 311.03L-198.03 186.763Z" fill="#00B5EF" fill-opacity="0.2"/>
<path d="M168.185 520.321V522.537C167.711 522.622 167.295 522.781 166.935 523.013C166.575 523.245 166.269 523.529 166.018 523.865C165.768 524.201 165.578 524.578 165.45 524.994C165.322 525.406 165.259 525.844 165.259 526.308C165.259 527.146 165.469 527.897 165.891 528.56C166.312 529.218 166.93 529.739 167.744 530.122C168.559 530.501 169.553 530.69 170.727 530.69C171.911 530.69 172.91 530.501 173.724 530.122C174.539 529.739 175.154 529.215 175.571 528.553C175.988 527.89 176.196 527.144 176.196 526.315C176.196 525.856 176.134 525.42 176.011 525.009C175.884 524.592 175.696 524.215 175.45 523.879C175.204 523.543 174.903 523.259 174.548 523.027C174.188 522.79 173.777 522.627 173.312 522.537L173.32 520.321C174.035 520.439 174.693 520.669 175.294 521.01C175.891 521.346 176.407 521.779 176.842 522.31C177.273 522.835 177.607 523.437 177.844 524.114C178.08 524.791 178.199 525.529 178.199 526.33C178.199 527.589 177.901 528.711 177.304 529.696C176.703 530.681 175.843 531.457 174.726 532.026C173.608 532.589 172.276 532.871 170.727 532.871C169.174 532.871 167.841 532.587 166.729 532.018C165.611 531.45 164.754 530.674 164.158 529.689C163.556 528.704 163.256 527.584 163.256 526.33C163.256 525.558 163.367 524.838 163.589 524.17C163.807 523.498 164.129 522.894 164.555 522.359C164.977 521.824 165.493 521.382 166.104 521.031C166.71 520.681 167.403 520.444 168.185 520.321ZM178.241 514.691C178.241 515.382 178.114 516.007 177.858 516.566C177.598 517.124 177.221 517.567 176.729 517.894C176.236 518.216 175.633 518.377 174.918 518.377C174.302 518.377 173.795 518.258 173.398 518.022C173 517.785 172.685 517.465 172.453 517.063C172.221 516.66 172.046 516.211 171.928 515.713C171.809 515.216 171.719 514.71 171.658 514.194C171.582 513.54 171.52 513.01 171.473 512.603C171.421 512.195 171.338 511.9 171.224 511.715C171.111 511.53 170.926 511.438 170.67 511.438H170.621C170 511.438 169.52 511.613 169.179 511.963C168.838 512.309 168.668 512.825 168.668 513.512C168.668 514.227 168.826 514.79 169.143 515.202C169.456 515.609 169.804 515.891 170.188 516.047L169.733 518.043C169.07 517.806 168.535 517.461 168.128 517.006C167.716 516.547 167.418 516.019 167.233 515.422C167.044 514.826 166.949 514.198 166.949 513.54C166.949 513.105 167.001 512.643 167.105 512.155C167.205 511.663 167.389 511.203 167.659 510.777C167.929 510.346 168.315 509.994 168.817 509.719C169.314 509.444 169.96 509.307 170.756 509.307H178V511.381H176.509V511.466C176.783 511.604 177.053 511.81 177.318 512.084C177.583 512.359 177.804 512.712 177.979 513.142C178.154 513.573 178.241 514.089 178.241 514.691ZM176.537 514.229C176.537 513.642 176.421 513.14 176.189 512.723C175.957 512.302 175.654 511.982 175.28 511.765C174.901 511.542 174.496 511.431 174.065 511.431H172.659C172.735 511.507 172.806 511.653 172.872 511.871C172.934 512.084 172.988 512.328 173.036 512.603C173.078 512.877 173.118 513.145 173.156 513.405C173.189 513.666 173.218 513.883 173.241 514.059C173.294 514.471 173.381 514.847 173.504 515.188C173.627 515.524 173.805 515.794 174.037 515.998C174.264 516.196 174.567 516.296 174.946 516.296C175.472 516.296 175.869 516.102 176.139 515.713C176.404 515.325 176.537 514.83 176.537 514.229ZM178 506.479H167.091V504.426H168.824V504.312C168.237 504.114 167.775 503.763 167.439 503.261C167.098 502.755 166.928 502.182 166.928 501.543C166.928 501.41 166.932 501.254 166.942 501.074C166.951 500.889 166.963 500.745 166.977 500.641H169.009C168.985 500.726 168.959 500.877 168.93 501.095C168.897 501.313 168.881 501.531 168.881 501.749C168.881 502.25 168.987 502.698 169.2 503.091C169.409 503.479 169.7 503.787 170.074 504.014C170.443 504.241 170.865 504.355 171.338 504.355H178V506.479ZM178.213 495.11C178.213 495.99 177.988 496.776 177.538 497.468C177.084 498.154 176.437 498.694 175.599 499.087C174.757 499.475 173.746 499.669 172.567 499.669C171.388 499.669 170.379 499.473 169.541 499.08C168.703 498.682 168.062 498.138 167.616 497.446C167.171 496.755 166.949 495.971 166.949 495.096C166.949 494.418 167.062 493.874 167.29 493.462C167.512 493.045 167.773 492.723 168.071 492.496C168.369 492.264 168.632 492.084 168.859 491.956V491.828H163.455V489.705H178V491.779H176.303V491.956C176.535 492.084 176.8 492.269 177.098 492.51C177.396 492.747 177.657 493.074 177.879 493.49C178.102 493.907 178.213 494.447 178.213 495.11ZM176.402 494.641C176.402 494.03 176.241 493.514 175.919 493.093C175.592 492.667 175.14 492.345 174.562 492.127C173.985 491.904 173.312 491.793 172.545 491.793C171.788 491.793 171.125 491.902 170.557 492.12C169.989 492.337 169.546 492.657 169.229 493.078C168.911 493.5 168.753 494.021 168.753 494.641C168.753 495.28 168.919 495.813 169.25 496.239C169.581 496.665 170.034 496.987 170.607 497.205C171.179 497.418 171.826 497.525 172.545 497.525C173.275 497.525 173.93 497.416 174.513 497.198C175.095 496.98 175.557 496.658 175.898 496.232C176.234 495.801 176.402 495.271 176.402 494.641ZM163.455 469.471H178V471.488L167.332 478.881V479.016H178V481.211H163.455V479.179L174.136 471.779V471.644H163.455V469.471ZM173.476 459.529H167.091V457.398H178V459.487H176.111V459.6C176.693 459.851 177.179 460.254 177.567 460.808C177.95 461.357 178.142 462.041 178.142 462.86C178.142 463.561 177.988 464.181 177.68 464.721C177.368 465.256 176.906 465.677 176.295 465.985C175.685 466.288 174.929 466.44 174.03 466.44H167.091V464.316H173.774C174.518 464.316 175.109 464.11 175.55 463.698C175.99 463.286 176.21 462.751 176.21 462.093C176.21 461.695 176.111 461.3 175.912 460.907C175.713 460.509 175.412 460.18 175.01 459.92C174.607 459.655 174.096 459.524 173.476 459.529ZM178 454.545H167.091V452.507H168.866V452.372C168.265 452.145 167.796 451.773 167.46 451.257C167.119 450.741 166.949 450.123 166.949 449.403C166.949 448.674 167.119 448.063 167.46 447.571C167.801 447.074 168.27 446.707 168.866 446.47V446.356C168.284 446.096 167.82 445.681 167.474 445.113C167.124 444.545 166.949 443.868 166.949 443.082C166.949 442.092 167.259 441.285 167.879 440.66C168.5 440.03 169.435 439.716 170.685 439.716H178V441.839H170.884C170.145 441.839 169.61 442.04 169.278 442.443C168.947 442.845 168.781 443.326 168.781 443.885C168.781 444.576 168.994 445.113 169.42 445.497C169.842 445.88 170.384 446.072 171.047 446.072H178V448.189H170.749C170.157 448.189 169.681 448.373 169.321 448.743C168.961 449.112 168.781 449.592 168.781 450.184C168.781 450.587 168.888 450.958 169.101 451.299C169.309 451.636 169.6 451.908 169.974 452.116C170.348 452.32 170.782 452.422 171.274 452.422H178V454.545ZM178 436.699H163.455V434.575H168.859V434.447C168.632 434.324 168.369 434.147 168.071 433.915C167.773 433.683 167.512 433.361 167.29 432.949C167.062 432.537 166.949 431.992 166.949 431.315C166.949 430.435 167.171 429.649 167.616 428.957C168.062 428.266 168.703 427.724 169.541 427.331C170.379 426.933 171.388 426.734 172.567 426.734C173.746 426.734 174.757 426.931 175.599 427.324C176.437 427.717 177.084 428.257 177.538 428.943C177.988 429.63 178.213 430.413 178.213 431.294C178.213 431.957 178.102 432.499 177.879 432.92C177.657 433.337 177.396 433.664 177.098 433.901C176.8 434.137 176.535 434.32 176.303 434.447V434.625H178V436.699ZM172.545 434.618C173.312 434.618 173.985 434.507 174.562 434.284C175.14 434.062 175.592 433.74 175.919 433.318C176.241 432.897 176.402 432.381 176.402 431.77C176.402 431.135 176.234 430.605 175.898 430.179C175.557 429.753 175.095 429.431 174.513 429.213C173.93 428.991 173.275 428.879 172.545 428.879C171.826 428.879 171.179 428.988 170.607 429.206C170.034 429.419 169.581 429.741 169.25 430.172C168.919 430.598 168.753 431.131 168.753 431.77C168.753 432.385 168.911 432.906 169.229 433.332C169.546 433.754 169.989 434.073 170.557 434.291C171.125 434.509 171.788 434.618 172.545 434.618ZM178.22 419.648C178.22 420.723 177.991 421.649 177.531 422.425C177.067 423.197 176.416 423.793 175.578 424.215C174.735 424.632 173.748 424.84 172.616 424.84C171.499 424.84 170.514 424.632 169.662 424.215C168.81 423.793 168.144 423.206 167.666 422.453C167.188 421.696 166.949 420.81 166.949 419.797C166.949 419.182 167.051 418.585 167.254 418.007C167.458 417.43 167.777 416.911 168.213 416.452C168.649 415.993 169.214 415.631 169.911 415.365C170.602 415.1 171.442 414.968 172.432 414.968H173.185V423.64H171.594V417.049C171.035 417.049 170.54 417.162 170.109 417.39C169.674 417.617 169.33 417.936 169.08 418.348C168.829 418.756 168.703 419.234 168.703 419.783C168.703 420.38 168.85 420.9 169.143 421.346C169.432 421.786 169.811 422.127 170.28 422.368C170.744 422.605 171.248 422.723 171.793 422.723H173.036C173.765 422.723 174.385 422.596 174.896 422.34C175.408 422.079 175.798 421.717 176.068 421.253C176.333 420.789 176.466 420.247 176.466 419.627C176.466 419.224 176.409 418.857 176.295 418.526C176.177 418.194 176.002 417.908 175.77 417.667C175.538 417.425 175.251 417.24 174.911 417.113L175.273 415.103C175.865 415.264 176.383 415.552 176.828 415.969C177.268 416.381 177.612 416.9 177.858 417.525C178.099 418.145 178.22 418.853 178.22 419.648ZM178 412.612H167.091V410.559H168.824V410.445C168.237 410.246 167.775 409.896 167.439 409.394C167.098 408.888 166.928 408.315 166.928 407.675C166.928 407.543 166.932 407.387 166.942 407.207C166.951 407.022 166.963 406.878 166.977 406.773H169.009C168.985 406.859 168.959 407.01 168.93 407.228C168.897 407.446 168.881 407.664 168.881 407.881C168.881 408.383 168.987 408.831 169.2 409.224C169.409 409.612 169.7 409.92 170.074 410.147C170.443 410.374 170.865 410.488 171.338 410.488H178V412.612Z" fill="#292075" fill-opacity="0.7"/>
<path d="M317 532.402H302.455V523.283H304.344V530.207H308.776V523.759H310.658V530.207H315.111V523.197H317V532.402ZM306.091 518.846L310.338 516.438L306.091 514.009V511.686L311.545 515.088L317 511.658V513.98L312.923 516.438L317 518.888V521.218L311.545 517.823L306.091 521.175V518.846ZM321.091 509.506H306.091V507.432H307.859V507.255C307.632 507.132 307.369 506.954 307.071 506.722C306.773 506.49 306.512 506.168 306.29 505.756C306.062 505.344 305.949 504.8 305.949 504.123C305.949 503.242 306.171 502.456 306.616 501.765C307.062 501.073 307.703 500.531 308.541 500.138C309.379 499.74 310.388 499.542 311.567 499.542C312.746 499.542 313.757 499.738 314.599 500.131C315.437 500.524 316.084 501.064 316.538 501.75C316.988 502.437 317.213 503.221 317.213 504.101C317.213 504.764 317.102 505.306 316.879 505.728C316.657 506.144 316.396 506.471 316.098 506.708C315.8 506.944 315.535 507.127 315.303 507.255V507.382H321.091V509.506ZM311.545 507.425C312.312 507.425 312.985 507.314 313.562 507.091C314.14 506.869 314.592 506.547 314.919 506.125C315.241 505.704 315.402 505.188 315.402 504.577C315.402 503.943 315.234 503.412 314.898 502.986C314.557 502.56 314.095 502.238 313.513 502.02C312.93 501.798 312.275 501.686 311.545 501.686C310.826 501.686 310.179 501.795 309.607 502.013C309.034 502.226 308.581 502.548 308.25 502.979C307.919 503.405 307.753 503.938 307.753 504.577C307.753 505.193 307.911 505.713 308.229 506.14C308.546 506.561 308.989 506.881 309.557 507.098C310.125 507.316 310.788 507.425 311.545 507.425ZM317 497.162H306.091V495.039H317V497.162ZM304.408 496.09C304.408 496.459 304.285 496.776 304.038 497.042C303.787 497.302 303.489 497.432 303.143 497.432C302.793 497.432 302.495 497.302 302.249 497.042C301.998 496.776 301.872 496.459 301.872 496.09C301.872 495.721 301.998 495.406 302.249 495.145C302.495 494.88 302.793 494.748 303.143 494.748C303.489 494.748 303.787 494.88 304.038 495.145C304.285 495.406 304.408 495.721 304.408 496.09ZM317 492.182H306.091V490.129H307.824V490.016C307.237 489.817 306.775 489.466 306.439 488.964C306.098 488.458 305.928 487.885 305.928 487.246C305.928 487.113 305.932 486.957 305.942 486.777C305.951 486.592 305.963 486.448 305.977 486.344H308.009C307.985 486.429 307.959 486.58 307.93 486.798C307.897 487.016 307.881 487.234 307.881 487.452C307.881 487.954 307.987 488.401 308.2 488.794C308.409 489.182 308.7 489.49 309.074 489.717C309.443 489.945 309.865 490.058 310.338 490.058H317V492.182ZM321.091 482.832C321.091 483.149 321.065 483.438 321.013 483.698C320.965 483.959 320.913 484.153 320.857 484.281L319.116 483.769C319.221 483.381 319.266 483.035 319.251 482.732C319.237 482.429 319.124 482.162 318.911 481.93C318.697 481.693 318.349 481.485 317.866 481.305L317.142 481.042L306.091 485.033V482.761L314.557 479.998V479.884L306.091 477.121V474.842L318.456 479.337C319.024 479.546 319.505 479.811 319.898 480.133C320.295 480.455 320.594 480.838 320.793 481.283C320.991 481.728 321.091 482.245 321.091 482.832ZM317 462.674V467.382H302.455V462.525C302.455 461.099 302.746 459.875 303.328 458.853C303.906 457.83 304.737 457.046 305.821 456.502C306.901 455.953 308.196 455.678 309.706 455.678C311.221 455.678 312.523 455.955 313.612 456.509C314.701 457.058 315.539 457.854 316.126 458.895C316.709 459.937 317 461.196 317 462.674ZM315.082 465.188V462.794C315.082 461.686 314.874 460.766 314.457 460.032C314.036 459.298 313.428 458.748 312.632 458.384C311.832 458.019 310.857 457.837 309.706 457.837C308.565 457.837 307.597 458.019 306.801 458.384C306.006 458.744 305.402 459.281 304.99 459.996C304.578 460.711 304.372 461.599 304.372 462.659V465.188H315.082ZM317.241 449.945C317.241 450.636 317.114 451.261 316.858 451.82C316.598 452.378 316.221 452.821 315.729 453.148C315.236 453.47 314.633 453.631 313.918 453.631C313.302 453.631 312.795 453.512 312.398 453.276C312 453.039 311.685 452.719 311.453 452.317C311.221 451.914 311.046 451.464 310.928 450.967C310.809 450.47 310.719 449.964 310.658 449.447C310.582 448.794 310.52 448.264 310.473 447.857C310.421 447.449 310.338 447.153 310.224 446.969C310.111 446.784 309.926 446.692 309.67 446.692H309.621C309 446.692 308.52 446.867 308.179 447.217C307.838 447.563 307.668 448.079 307.668 448.766C307.668 449.481 307.826 450.044 308.143 450.456C308.456 450.863 308.804 451.145 309.188 451.301L308.733 453.297C308.07 453.06 307.535 452.714 307.128 452.26C306.716 451.801 306.418 451.273 306.233 450.676C306.044 450.08 305.949 449.452 305.949 448.794C305.949 448.358 306.001 447.897 306.105 447.409C306.205 446.917 306.389 446.457 306.659 446.031C306.929 445.6 307.315 445.248 307.817 444.973C308.314 444.698 308.96 444.561 309.756 444.561H317V446.635H315.509V446.72C315.783 446.857 316.053 447.063 316.318 447.338C316.583 447.613 316.804 447.965 316.979 448.396C317.154 448.827 317.241 449.343 317.241 449.945ZM315.537 449.483C315.537 448.896 315.421 448.394 315.189 447.977C314.957 447.556 314.654 447.236 314.28 447.018C313.901 446.796 313.496 446.685 313.065 446.685H311.659C311.735 446.76 311.806 446.907 311.872 447.125C311.934 447.338 311.988 447.582 312.036 447.857C312.078 448.131 312.118 448.399 312.156 448.659C312.189 448.92 312.218 449.137 312.241 449.312C312.294 449.724 312.381 450.101 312.504 450.442C312.627 450.778 312.805 451.048 313.037 451.251C313.264 451.45 313.567 451.55 313.946 451.55C314.472 451.55 314.869 451.356 315.139 450.967C315.404 450.579 315.537 450.084 315.537 449.483ZM306.091 436.64H307.795V442.599H306.091V436.64ZM303.477 441.001V438.877H313.797C314.209 438.877 314.519 438.816 314.727 438.693C314.931 438.57 315.071 438.411 315.146 438.217C315.217 438.018 315.253 437.803 315.253 437.571C315.253 437.4 315.241 437.251 315.217 437.123C315.194 436.995 315.175 436.896 315.161 436.825L316.915 436.441C316.962 436.565 317.009 436.74 317.057 436.967C317.109 437.194 317.137 437.478 317.142 437.819C317.152 438.378 317.052 438.899 316.844 439.382C316.635 439.865 316.313 440.255 315.878 440.554C315.442 440.852 314.895 441.001 314.237 441.001H303.477ZM317.22 429.707C317.22 430.781 316.991 431.707 316.531 432.484C316.067 433.255 315.416 433.852 314.578 434.273C313.735 434.69 312.748 434.898 311.616 434.898C310.499 434.898 309.514 434.69 308.662 434.273C307.81 433.852 307.144 433.265 306.666 432.512C306.188 431.754 305.949 430.869 305.949 429.856C305.949 429.24 306.051 428.644 306.254 428.066C306.458 427.488 306.777 426.97 307.213 426.511C307.649 426.051 308.214 425.689 308.911 425.424C309.602 425.159 310.442 425.026 311.432 425.026H312.185V433.698H310.594V427.107C310.035 427.107 309.54 427.221 309.109 427.448C308.674 427.675 308.33 427.995 308.08 428.407C307.829 428.814 307.703 429.292 307.703 429.842C307.703 430.438 307.85 430.959 308.143 431.404C308.432 431.844 308.811 432.185 309.28 432.427C309.744 432.664 310.248 432.782 310.793 432.782H312.036C312.765 432.782 313.385 432.654 313.896 432.398C314.408 432.138 314.798 431.776 315.068 431.312C315.333 430.848 315.466 430.306 315.466 429.685C315.466 429.283 315.409 428.916 315.295 428.585C315.177 428.253 315.002 427.967 314.77 427.725C314.538 427.484 314.251 427.299 313.911 427.171L314.273 425.161C314.865 425.322 315.383 425.611 315.828 426.028C316.268 426.44 316.612 426.958 316.858 427.583C317.099 428.203 317.22 428.911 317.22 429.707Z" fill="#292075" fill-opacity="0.7"/>
<path d="M307.185 392.321V394.537C306.711 394.622 306.295 394.781 305.935 395.013C305.575 395.245 305.269 395.529 305.018 395.865C304.768 396.201 304.578 396.578 304.45 396.994C304.322 397.406 304.259 397.844 304.259 398.308C304.259 399.146 304.469 399.897 304.891 400.56C305.312 401.218 305.93 401.739 306.744 402.122C307.559 402.501 308.553 402.69 309.727 402.69C310.911 402.69 311.91 402.501 312.724 402.122C313.539 401.739 314.154 401.215 314.571 400.553C314.988 399.89 315.196 399.144 315.196 398.315C315.196 397.856 315.134 397.42 315.011 397.009C314.884 396.592 314.696 396.215 314.45 395.879C314.204 395.543 313.903 395.259 313.548 395.027C313.188 394.79 312.777 394.627 312.312 394.537L312.32 392.321C313.035 392.439 313.693 392.669 314.294 393.01C314.891 393.346 315.407 393.779 315.842 394.31C316.273 394.835 316.607 395.437 316.844 396.114C317.08 396.791 317.199 397.529 317.199 398.33C317.199 399.589 316.901 400.711 316.304 401.696C315.703 402.681 314.843 403.457 313.726 404.026C312.608 404.589 311.276 404.871 309.727 404.871C308.174 404.871 306.841 404.587 305.729 404.018C304.611 403.45 303.754 402.674 303.158 401.689C302.556 400.704 302.256 399.584 302.256 398.33C302.256 397.558 302.367 396.838 302.589 396.17C302.807 395.498 303.129 394.894 303.555 394.359C303.977 393.824 304.493 393.382 305.104 393.031C305.71 392.681 306.403 392.444 307.185 392.321ZM302.455 388.424L314.301 384.375V384.212L302.455 380.164V377.792L317 383.026V385.561L302.455 390.796V388.424ZM302.455 374.42L314.301 370.371V370.208L302.455 366.16V363.788L317 369.022V371.558L302.455 376.792V374.42Z" fill="#292075" fill-opacity="0.7"/>
</g>
<defs>
<linearGradient id="paint0_linear_324_921" x1="-69" y1="39.7929" x2="295.414" y2="39.7929" gradientUnits="userSpaceOnUse">
<stop stop-color="#FBFBFB"/>
<stop offset="1" stop-color="#FBFBFB" stop-opacity="0"/>
</linearGradient>
<linearGradient id="paint1_linear_324_921" x1="-227" y1="157.793" x2="137.414" y2="157.793" gradientUnits="userSpaceOnUse">
<stop stop-color="#FBFBFB"/>
<stop offset="1" stop-color="#FBFBFB" stop-opacity="0"/>
</linearGradient>
<clipPath id="clip0_324_921">
<rect y="574" width="574" height="390" rx="32" transform="rotate(-90 0 574)" fill="white"/>
</clipPath>
</defs>
</svg>
