<svg width="11" height="16" viewBox="0 0 11 16" fill="none" xmlns="http://www.w3.org/2000/svg">
<path d="M2.03488 8.94259H7.77325C8.44477 8.94259 8.91279 8.84074 9.42151 8.37222C9.99128 7.84259 10.0523 7.29259 10.0523 6.55926V2.38333C10.0523 1.65 9.99128 1.1 9.42151 0.57037C8.91279 0.101852 8.44477 0 7.77325 0L1.01744 0C0.488372 0 0 0.285185 0 1.01852C0 1.75185 0.488372 2.03704 1.01744 2.03704H8.01744V6.90556H2.29942C0.773255 6.90556 0 7.67963 0 9.20741L0 15.8481H9.03488C9.56395 15.8481 10.0523 15.563 10.0523 14.8296C10.0523 14.0963 9.56395 13.8111 9.03488 13.8111H2.03488V8.94259Z" fill="#232323"/>
</svg>
