<svg width="11" height="17" viewBox="0 0 11 17" fill="none" xmlns="http://www.w3.org/2000/svg">
<path d="M8.30846 2.99999V6.38147C8.30846 7.52221 7.86078 7.86851 7.29102 7.86851H3.30264C2.77357 7.86851 2.2852 8.15369 2.2852 8.88703C2.2852 9.62036 2.77357 9.90555 3.30264 9.90555H7.29102C7.86078 9.90555 8.30846 10.2518 8.30846 11.3926V14.7741H1.30846C0.779387 14.7741 0.291016 15.0592 0.291016 15.7926C0.291016 16.5259 0.779387 16.8111 1.30846 16.8111H8.30846C9.46834 16.8111 10.3433 15.9352 10.3433 14.7741V10.863C10.3433 10.0481 10.1806 9.4574 9.54974 8.88703C10.1806 8.31666 10.3433 7.72592 10.3433 6.9111V2.99999C10.3433 1.83888 9.46834 0.962952 8.30846 0.962952H1.30846C0.779387 0.962952 0.291016 1.24814 0.291016 1.98147C0.291016 2.7148 0.779387 2.99999 1.30846 2.99999H8.30846Z" fill="currentColor"/>
</svg>
