<svg width="10" height="17" viewBox="0 0 10 17" fill="none" xmlns="http://www.w3.org/2000/svg">
<path d="M2.98899 9.59999V1.98147C2.98899 1.47221 2.7448 0.962952 1.97154 0.962952C1.19829 0.962952 0.954102 1.47221 0.954102 1.98147V11.637H6.93666V15.7926C6.93666 16.4444 7.22155 16.8111 7.95411 16.8111C8.68666 16.8111 8.97155 16.4444 8.97155 15.7926V11.637C9.50062 11.637 9.98899 11.3518 9.98899 10.6185C9.98899 9.88518 9.50062 9.59999 8.97155 9.59999V3.71295C8.97155 3.20369 8.72736 2.69443 7.95411 2.69443C7.18085 2.69443 6.93666 3.20369 6.93666 3.71295V9.59999H2.98899Z" fill="currentColor"/>
</svg>
