<svg width="11" height="17" viewBox="0 0 11 17" fill="none" xmlns="http://www.w3.org/2000/svg">
<path d="M4.27745 2.99999H9.26292C9.79199 2.99999 10.2804 2.7148 10.2804 1.98147C10.2804 1.24814 9.79199 0.962952 9.26292 0.962952H2.24257V9.90555H8.24548V14.7741H3.54489C3.21931 14.7741 2.75128 14.4889 2.4664 14.3667L1.85593 14.1018C1.6321 14 1.44896 13.9389 1.20477 13.9389C0.675703 13.9389 0.228027 14.4278 0.228027 14.9574C0.228027 15.6704 0.838498 15.8537 1.38792 16.0981L2.16116 16.4444C2.66988 16.6685 2.97512 16.8111 3.50419 16.8111H8.02164C8.7542 16.8111 9.28326 16.7296 9.79198 16.1185C10.2193 15.6092 10.2804 15.1611 10.2804 14.5296V10.1704C10.2804 9.4574 10.2193 8.96851 9.64954 8.43888C9.16117 7.97036 8.6728 7.86851 8.02164 7.86851H4.27745V2.99999Z" fill="#232323"/>
</svg>
