<svg width="11" height="17" viewBox="0 0 11 17" fill="none" xmlns="http://www.w3.org/2000/svg">
<path d="M8.53649 2.99999V5.8111C8.53649 6.7074 8.57718 6.68703 7.90567 7.27777L5.09753 9.70184C4.58881 10.15 4.56847 10.2111 4.56847 10.8833V15.7926C4.56847 16.4444 4.85335 16.8111 5.58591 16.8111C6.31847 16.8111 6.60335 16.4444 6.60335 15.7926V11.8407C6.60335 11.1278 6.64404 11.087 7.17311 10.6185L10.0219 8.15369C10.5917 7.6648 10.5714 7.58332 10.5714 6.87036V0.962952H1.53648C0.885321 0.962952 0.519043 1.53332 0.519043 1.98147V2.99999C0.519043 3.44814 0.885321 4.01851 1.53648 4.01851C2.18765 4.01851 2.55392 3.44814 2.55392 2.99999H8.53649Z" fill="#232323"/>
</svg>
