<svg width="11" height="17" viewBox="0 0 11 17" fill="none" xmlns="http://www.w3.org/2000/svg">
<path d="M4.2348 7.86851V2.99999H6.1476V7.86851H4.2348ZM3.21736 0.962952C2.5255 0.962952 2.19992 1.45184 2.19992 1.98147V7.86851C1.56911 7.86851 1.08074 8.09258 0.714462 8.43888C0.348183 8.78517 0.165039 9.29443 0.165039 9.92592V14.7741C0.165039 16.0167 0.938293 16.8111 2.19992 16.8111H8.18249C9.44411 16.8111 10.2174 16.0167 10.2174 14.7741V9.92592C10.2174 9.29443 10.0342 8.78517 9.66795 8.43888C9.30167 8.09258 8.8133 7.86851 8.18249 7.86851V1.98147C8.18249 1.45184 7.85691 0.962952 7.16505 0.962952H3.21736ZM2.19992 14.7741V9.90555H8.18249V14.7741H2.19992Z" fill="currentColor"/>
</svg>
