<svg width="220" height="198" viewBox="0 0 220 198" fill="none" xmlns="http://www.w3.org/2000/svg">
<path d="M100.679 9.94258H106.417C107.089 9.94258 107.557 9.84072 108.066 9.37221C108.635 8.84258 108.696 8.29258 108.696 7.55924V3.38332C108.696 2.64998 108.635 2.09998 108.066 1.57035C107.557 1.10183 107.089 0.999983 106.417 0.999983H99.6616C99.1325 0.999983 98.6441 1.28517 98.6441 2.0185C98.6441 2.75184 99.1325 3.03702 99.6616 3.03702H106.662V7.90554H100.944C99.4174 7.90554 98.6441 8.67961 98.6441 10.2074V16.8481H107.679C108.208 16.8481 108.696 16.5629 108.696 15.8296C108.696 15.0963 108.208 14.8111 107.679 14.8111H100.679V9.94258Z" fill="#232323"/>
<path d="M121.307 3.03702V6.4185C121.307 7.55924 120.86 7.90554 120.29 7.90554H116.301C115.772 7.90554 115.284 8.19072 115.284 8.92406C115.284 9.65739 115.772 9.94258 116.301 9.94258H120.29C120.86 9.94258 121.307 10.2889 121.307 11.4296V14.8111H114.307C113.778 14.8111 113.29 15.0963 113.29 15.8296C113.29 16.5629 113.778 16.8481 114.307 16.8481H121.307C122.467 16.8481 123.342 15.9722 123.342 14.8111V10.9C123.342 10.0852 123.179 9.49443 122.548 8.92406C123.179 8.35369 123.342 7.76295 123.342 6.94813V3.03702C123.342 1.87591 122.467 0.999983 121.307 0.999983H114.307C113.778 0.999983 113.29 1.28517 113.29 2.0185C113.29 2.75184 113.778 3.03702 114.307 3.03702H121.307Z" fill="#232323"/>
<path d="M130.988 9.63702V2.0185C130.988 1.50924 130.744 0.999983 129.97 0.999983C129.197 0.999983 128.953 1.50924 128.953 2.0185V11.6741H134.935V15.8296C134.935 16.4815 135.22 16.8481 135.953 16.8481C136.685 16.8481 136.97 16.4815 136.97 15.8296V11.6741C137.499 11.6741 137.988 11.3889 137.988 10.6555C137.988 9.92221 137.499 9.63702 136.97 9.63702V3.74998C136.97 3.24072 136.726 2.73147 135.953 2.73147C135.18 2.73147 134.935 3.24072 134.935 3.74998V9.63702H130.988Z" fill="#232323"/>
<path d="M146.025 3.03704H151.01C151.539 3.03704 152.028 2.75185 152.028 2.01852C152.028 1.28518 151.539 0.999998 151.01 0.999998H143.99V9.94259H149.993V14.8111H145.292C144.967 14.8111 144.499 14.5259 144.214 14.4037L143.603 14.1389C143.379 14.037 143.196 13.9759 142.952 13.9759C142.423 13.9759 141.975 14.4648 141.975 14.9944C141.975 15.7074 142.586 15.8907 143.135 16.1352L143.908 16.4815C144.417 16.7056 144.722 16.8481 145.251 16.8481H149.769C150.501 16.8481 151.031 16.7667 151.539 16.1556C151.967 15.6463 152.028 15.1981 152.028 14.5667V10.2074C152.028 9.49444 151.967 9.00555 151.397 8.47593C150.908 8.00741 150.42 7.90555 149.769 7.90555H146.025V3.03704Z" fill="#232323"/>
<path d="M158.481 2.67039C159.071 2.67039 159.499 2.26298 159.499 1.65187C159.499 1.12224 159.071 0.633352 158.542 0.633352H157.321C156.609 0.633352 156.446 1.18335 156.446 1.65187V15.1982C156.446 16.1352 156.812 16.4815 157.769 16.4815H165.176C166.091 16.4815 166.498 16.1556 166.498 15.1982V10.6352C166.498 9.69817 166.295 9.27039 165.278 9.27039H158.481V2.67039ZM164.464 11.3074V14.4445H158.481V11.3074H164.464Z" fill="#232323"/>
<path d="M177.464 2.67036V5.48147C177.464 6.37777 177.504 6.3574 176.833 6.94814L174.025 9.37221C173.516 9.82036 173.496 9.88147 173.496 10.5537V15.463C173.496 16.1148 173.78 16.4815 174.513 16.4815C175.246 16.4815 175.53 16.1148 175.53 15.463V11.5111C175.53 10.7981 175.571 10.7574 176.1 10.2889L178.949 7.82406C179.519 7.33517 179.498 7.25369 179.498 6.54073V0.633322H170.464C169.812 0.633322 169.446 1.20369 169.446 1.65184V2.67036C169.446 3.11851 169.812 3.68888 170.464 3.68888C171.115 3.68888 171.481 3.11851 171.481 2.67036H177.464Z" fill="#232323"/>
<path d="M187.016 7.53888V2.67036H188.929V7.53888H187.016ZM185.998 0.633326C185.307 0.633326 184.981 1.12222 184.981 1.65184V7.53888C184.35 7.53888 183.862 7.76296 183.496 8.10925C183.129 8.45555 182.946 8.96481 182.946 9.59629V14.4444C182.946 15.687 183.719 16.4815 184.981 16.4815H190.964C192.225 16.4815 192.998 15.687 192.998 14.4444V9.59629C192.998 8.96481 192.815 8.45555 192.449 8.10925C192.083 7.76296 191.594 7.53888 190.964 7.53888V1.65184C190.964 1.12222 190.638 0.633326 189.946 0.633326H185.998ZM184.981 14.4444V9.57592H190.964V14.4444H184.981Z" fill="#232323"/>
<path d="M203.963 14.4445C203.373 14.4445 202.946 14.8519 202.946 15.463C202.946 16.013 203.353 16.4815 203.963 16.4815H204.981C205.591 16.4815 205.998 16.013 205.998 15.463V1.65188C205.998 1.12225 205.551 0.63336 204.981 0.63336H196.963C196.394 0.63336 195.946 1.12225 195.946 1.65188V6.86669C195.946 7.39632 196.394 7.88521 196.963 7.88521H203.963V14.4445ZM197.981 5.84818V2.6704H203.963V5.84818H197.981Z" fill="#232323"/>
<path d="M211.533 0.633301C210.414 0.633301 209.498 1.54997 209.498 2.67034V14.4444C209.498 15.5852 210.373 16.4814 211.533 16.4814H217.516C218.676 16.4814 219.551 15.5852 219.551 14.4444V2.67034C219.551 1.54997 218.635 0.633301 217.516 0.633301H211.533ZM211.533 14.4444V2.67034H217.516V14.4444H211.533Z" fill="#232323"/>
<path d="M90.0421 14.8111V0.999985H85.0159C84.4869 0.999985 83.9985 1.28517 83.9985 2.0185C83.9985 2.75184 84.4869 3.03702 85.0159 3.03702H88.0072V14.8111H85.0159C84.4869 14.8111 83.9985 15.0963 83.9985 15.8296C83.9985 16.5629 84.4869 16.8481 85.0159 16.8481H93.0334C93.5624 16.8481 94.0508 16.5629 94.0508 15.8296V10.6963C94.0508 10.1055 93.7863 9.67776 93.0334 9.67776C92.2805 9.67776 92.0159 10.1055 92.0159 10.6963V14.8111H90.0421Z" fill="#232323"/>
<path d="M6.54361 195.311V181.5H1.51744C0.988372 181.5 0.5 181.785 0.5 182.519C0.5 183.252 0.988372 183.537 1.51744 183.537H4.50872V195.311H1.51744C0.988372 195.311 0.5 195.596 0.5 196.33C0.5 197.063 0.988372 197.348 1.51744 197.348H9.53489C10.064 197.348 10.5523 197.063 10.5523 196.33V191.196C10.5523 190.606 10.2878 190.178 9.53489 190.178C8.78198 190.178 8.51744 190.606 8.51744 191.196V195.311H6.54361Z" fill="#232323"/>
<path d="M26.0349 190.443H31.7733C32.4448 190.443 32.9128 190.341 33.4215 189.872C33.9913 189.343 34.0523 188.793 34.0523 188.059V183.883C34.0523 183.15 33.9913 182.6 33.4215 182.07C32.9128 181.602 32.4448 181.5 31.7733 181.5H25.0174C24.4884 181.5 24 181.785 24 182.519C24 183.252 24.4884 183.537 25.0174 183.537H32.0174V188.406H26.2994C24.7733 188.406 24 189.18 24 190.707V197.348H33.0349C33.564 197.348 34.0523 197.063 34.0523 196.33C34.0523 195.596 33.564 195.311 33.0349 195.311H26.0349V190.443Z" fill="#232323"/>
</svg>
