<svg width="39" height="130" viewBox="0 0 39 130" fill="none" xmlns="http://www.w3.org/2000/svg">
<g filter="url(#filter0_d_182_660)">
<g clip-path="url(#clip0_182_660)">
<rect x="10" y="100" width="100" height="19" rx="5" transform="rotate(-90 10 100)" fill="url(#paint0_radial_182_660)" fill-opacity="0.8"/>
<rect x="10" y="100" width="100" height="19" rx="5" transform="rotate(-90 10 100)" fill="url(#paint1_linear_182_660)"/>
</g>
<rect x="10.5" y="99.5" width="99" height="18" rx="4.5" transform="rotate(-90 10.5 99.5)" stroke="url(#paint2_linear_182_660)" stroke-opacity="0.2"/>
</g>
<path d="M23 77.2024V78.3274L17.1818 76.2791V74.978L23 72.9268V74.0518L18.375 75.6058V75.6513L23 77.2024ZM20.7188 77.1655V74.0973H21.5653V77.1655H20.7188ZM23.0767 70.7195C23.0767 71.0623 22.9886 71.3691 22.8125 71.6399C22.6364 71.9107 22.3807 72.1248 22.0455 72.282C21.7102 72.4392 21.303 72.5178 20.8239 72.5178C20.339 72.5178 19.9299 72.4382 19.5966 72.2791C19.2614 72.1181 19.0085 71.9013 18.8381 71.6286C18.6657 71.3558 18.5795 71.0518 18.5795 70.7166C18.5795 70.4609 18.6231 70.2507 18.7102 70.0859C18.7955 69.9212 18.8987 69.7905 19.0199 69.6939C19.1392 69.5973 19.2519 69.5225 19.358 69.4695V69.4268H17.1818V68.3956H23V69.407H22.3125V69.4695C22.4186 69.5225 22.5312 69.5992 22.6506 69.6996C22.768 69.8 22.8684 69.9325 22.9517 70.0973C23.035 70.2621 23.0767 70.4695 23.0767 70.7195ZM22.233 70.4325C22.233 70.2147 22.1742 70.0291 22.0568 69.8757C21.9375 69.7223 21.7718 69.6058 21.5597 69.5263C21.3475 69.4467 21.1004 69.407 20.8182 69.407C20.536 69.407 20.2907 69.4467 20.0824 69.5263C19.8741 69.6039 19.7121 69.7195 19.5966 69.8729C19.4811 70.0244 19.4233 70.2109 19.4233 70.4325C19.4233 70.6617 19.483 70.853 19.6023 71.0064C19.7216 71.1598 19.8864 71.2753 20.0966 71.353C20.3068 71.4306 20.5473 71.4695 20.8182 71.4695C21.0909 71.4695 21.3343 71.4306 21.5483 71.353C21.7604 71.2734 21.928 71.157 22.0511 71.0036C22.1723 70.8482 22.233 70.6579 22.233 70.4325ZM23.0767 65.6804C23.0767 66.0232 22.9886 66.33 22.8125 66.6009C22.6364 66.8717 22.3807 67.0857 22.0455 67.2429C21.7102 67.4001 21.303 67.4787 20.8239 67.4787C20.339 67.4787 19.9299 67.3991 19.5966 67.2401C19.2614 67.0791 19.0085 66.8622 18.8381 66.5895C18.6657 66.3168 18.5795 66.0128 18.5795 65.6776C18.5795 65.4219 18.6231 65.2116 18.7102 65.0469C18.7955 64.8821 18.8987 64.7514 19.0199 64.6548C19.1392 64.5582 19.2519 64.4834 19.358 64.4304V64.3878H17.1818V63.3565H23V64.3679H22.3125V64.4304C22.4186 64.4834 22.5312 64.5601 22.6506 64.6605C22.768 64.7609 22.8684 64.8935 22.9517 65.0582C23.035 65.223 23.0767 65.4304 23.0767 65.6804ZM22.233 65.3935C22.233 65.1757 22.1742 64.9901 22.0568 64.8366C21.9375 64.6832 21.7718 64.5668 21.5597 64.4872C21.3475 64.4077 21.1004 64.3679 20.8182 64.3679C20.536 64.3679 20.2907 64.4077 20.0824 64.4872C19.8741 64.5649 19.7121 64.6804 19.5966 64.8338C19.4811 64.9853 19.4233 65.1719 19.4233 65.3935C19.4233 65.6226 19.483 65.8139 19.6023 65.9673C19.7216 66.1207 19.8864 66.2363 20.0966 66.3139C20.3068 66.3916 20.5473 66.4304 20.8182 66.4304C21.0909 66.4304 21.3343 66.3916 21.5483 66.3139C21.7604 66.2344 21.928 66.1179 22.0511 65.9645C22.1723 65.8092 22.233 65.6188 22.233 65.3935ZM18.0653 60.4865H17.1818V55.8445H18.0653V57.6428H23V58.6882H18.0653V60.4865ZM23.0852 53.7244C23.0852 54.1506 22.9915 54.5199 22.804 54.8324C22.6165 55.1449 22.3542 55.3873 22.017 55.5597C21.6799 55.7301 21.286 55.8153 20.8352 55.8153C20.3845 55.8153 19.9896 55.7301 19.6506 55.5597C19.3116 55.3873 19.0483 55.1449 18.8608 54.8324C18.6733 54.5199 18.5795 54.1506 18.5795 53.7244C18.5795 53.2983 18.6733 52.929 18.8608 52.6165C19.0483 52.304 19.3116 52.0625 19.6506 51.892C19.9896 51.7197 20.3845 51.6335 20.8352 51.6335C21.286 51.6335 21.6799 51.7197 22.017 51.892C22.3542 52.0625 22.6165 52.304 22.804 52.6165C22.9915 52.929 23.0852 53.2983 23.0852 53.7244ZM22.2614 53.7188C22.2614 53.4877 22.1979 53.2945 22.071 53.1392C21.9422 52.9839 21.7699 52.8684 21.554 52.7926C21.3381 52.715 21.0975 52.6761 20.8324 52.6761C20.5653 52.6761 20.3239 52.715 20.108 52.7926C19.8902 52.8684 19.7169 52.9839 19.5881 53.1392C19.4593 53.2945 19.3949 53.4877 19.3949 53.7188C19.3949 53.9555 19.4593 54.1525 19.5881 54.3097C19.7169 54.465 19.8902 54.5814 20.108 54.6591C20.3239 54.7348 20.5653 54.7727 20.8324 54.7727C21.0975 54.7727 21.3381 54.7348 21.554 54.6591C21.7699 54.5814 21.9422 54.465 22.071 54.3097C22.1979 54.1525 22.2614 53.9555 22.2614 53.7188ZM23 48.7308H17.1818V46.549C17.1818 46.102 17.2652 45.727 17.4318 45.424C17.5985 45.1191 17.8277 44.889 18.1193 44.7337C18.4091 44.5765 18.7386 44.4979 19.108 44.4979C19.4811 44.4979 19.8125 44.5765 20.1023 44.7337C20.392 44.8909 20.6203 45.1229 20.7869 45.4297C20.9517 45.7365 21.0341 46.1143 21.0341 46.5632V48.0092H20.1676V46.7053C20.1676 46.4439 20.1222 46.2299 20.0312 46.0632C19.9403 45.8965 19.8153 45.7734 19.6562 45.6939C19.4972 45.6125 19.3144 45.5717 19.108 45.5717C18.9015 45.5717 18.7197 45.6125 18.5625 45.6939C18.4053 45.7734 18.2831 45.8975 18.196 46.0661C18.107 46.2327 18.0625 46.4477 18.0625 46.7109V47.6768H23V48.7308ZM23.0881 42.4503C23.0881 42.7268 23.0388 42.9759 22.9403 43.1974C22.84 43.4171 22.6922 43.5914 22.4972 43.7202C22.3021 43.8471 22.0616 43.9105 21.7756 43.9105C21.5294 43.9105 21.3258 43.8651 21.1648 43.7741C21.0038 43.6832 20.875 43.5592 20.7784 43.402C20.6818 43.2448 20.6089 43.0677 20.5597 42.8707C20.5085 42.6719 20.4716 42.4664 20.4489 42.2543C20.4223 41.9986 20.3987 41.7912 20.3778 41.6321C20.3551 41.473 20.321 41.3575 20.2756 41.2855C20.2282 41.2116 20.1553 41.1747 20.0568 41.1747H20.0398C19.8258 41.1747 19.66 41.2382 19.5426 41.3651C19.4252 41.492 19.3665 41.6747 19.3665 41.9134C19.3665 42.1652 19.4214 42.3651 19.5312 42.5128C19.6411 42.6586 19.7708 42.7571 19.9205 42.8082L19.7841 43.7685C19.5189 43.6927 19.2973 43.5677 19.1193 43.3935C18.9394 43.2192 18.8049 43.0062 18.7159 42.7543C18.625 42.5024 18.5795 42.224 18.5795 41.919C18.5795 41.7088 18.6042 41.4995 18.6534 41.2912C18.7027 41.0829 18.7841 40.8925 18.8977 40.7202C19.0095 40.5478 19.1619 40.4096 19.3551 40.3054C19.5483 40.1993 19.7898 40.1463 20.0795 40.1463H23V41.1349H22.4006V41.169C22.5218 41.2315 22.6354 41.3196 22.7415 41.4332C22.8456 41.545 22.9299 41.6861 22.9943 41.8565C23.0568 42.0251 23.0881 42.223 23.0881 42.4503ZM22.3324 42.1832C22.3324 41.9768 22.2917 41.7978 22.2102 41.6463C22.1269 41.4948 22.017 41.3783 21.8807 41.2969C21.7443 41.2135 21.5956 41.1719 21.4347 41.1719H20.9205C20.947 41.2041 20.9716 41.259 20.9943 41.3366C21.017 41.4124 21.0369 41.4976 21.054 41.5923C21.071 41.687 21.0862 41.7808 21.0994 41.8736C21.1127 41.9664 21.1241 42.0469 21.1335 42.1151C21.1544 42.2685 21.1884 42.4058 21.2358 42.527C21.2831 42.6482 21.3494 42.7438 21.4347 42.8139C21.518 42.884 21.6259 42.919 21.7585 42.919C21.9479 42.919 22.0909 42.8499 22.1875 42.7116C22.2841 42.5734 22.3324 42.3973 22.3324 42.1832ZM19.7898 35.6634L19.892 36.6009C19.7973 36.6274 19.7083 36.6738 19.625 36.7401C19.5417 36.8045 19.4744 36.8916 19.4233 37.0014C19.3722 37.1113 19.3466 37.2457 19.3466 37.4048C19.3466 37.6188 19.393 37.7988 19.4858 37.9446C19.5786 38.0885 19.6989 38.1596 19.8466 38.1577C19.9735 38.1596 20.0767 38.1132 20.1562 38.0185C20.2358 37.9219 20.3011 37.7628 20.3523 37.5412L20.5114 36.7969C20.6004 36.384 20.7415 36.0772 20.9347 35.8764C21.1278 35.6738 21.3807 35.5715 21.6932 35.5696C21.9678 35.5715 22.2102 35.652 22.4205 35.8111C22.6288 35.9683 22.7917 36.187 22.9091 36.4673C23.0265 36.7476 23.0852 37.0696 23.0852 37.4332C23.0852 37.9673 22.9735 38.3973 22.75 38.723C22.5246 39.0488 22.2112 39.2429 21.8097 39.3054L21.7131 38.3026C21.91 38.2571 22.0587 38.1605 22.1591 38.0128C22.2595 37.8651 22.3097 37.6728 22.3097 37.4361C22.3097 37.1918 22.2595 36.9957 22.1591 36.848C22.0587 36.6984 21.9347 36.6236 21.7869 36.6236C21.6619 36.6236 21.5587 36.6719 21.4773 36.7685C21.3958 36.8632 21.3333 37.0109 21.2898 37.2116L21.1335 37.956C21.0464 38.3745 20.8996 38.6842 20.6932 38.8849C20.4848 39.0857 20.2216 39.1851 19.9034 39.1832C19.6345 39.1851 19.4015 39.1122 19.2045 38.9645C19.0057 38.8149 18.8523 38.6075 18.7443 38.3423C18.6345 38.0753 18.5795 37.7675 18.5795 37.419C18.5795 36.9077 18.6884 36.5052 18.9062 36.2116C19.1241 35.9162 19.4186 35.7334 19.7898 35.6634ZM19.7898 31.2727L19.892 32.2102C19.7973 32.2367 19.7083 32.2831 19.625 32.3494C19.5417 32.4138 19.4744 32.5009 19.4233 32.6108C19.3722 32.7206 19.3466 32.8551 19.3466 33.0142C19.3466 33.2282 19.393 33.4081 19.4858 33.554C19.5786 33.6979 19.6989 33.7689 19.8466 33.767C19.9735 33.7689 20.0767 33.7225 20.1562 33.6278C20.2358 33.5312 20.3011 33.3722 20.3523 33.1506L20.5114 32.4062C20.6004 31.9934 20.7415 31.6866 20.9347 31.4858C21.1278 31.2831 21.3807 31.1809 21.6932 31.179C21.9678 31.1809 22.2102 31.2614 22.4205 31.4205C22.6288 31.5777 22.7917 31.7964 22.9091 32.0767C23.0265 32.357 23.0852 32.679 23.0852 33.0426C23.0852 33.5767 22.9735 34.0066 22.75 34.3324C22.5246 34.6581 22.2112 34.8523 21.8097 34.9148L21.7131 33.9119C21.91 33.8665 22.0587 33.7699 22.1591 33.6222C22.2595 33.4744 22.3097 33.2822 22.3097 33.0455C22.3097 32.8011 22.2595 32.6051 22.1591 32.4574C22.0587 32.3078 21.9347 32.233 21.7869 32.233C21.6619 32.233 21.5587 32.2812 21.4773 32.3778C21.3958 32.4725 21.3333 32.6203 21.2898 32.821L21.1335 33.5653C21.0464 33.9839 20.8996 34.2936 20.6932 34.4943C20.4848 34.6951 20.2216 34.7945 19.9034 34.7926C19.6345 34.7945 19.4015 34.7216 19.2045 34.5739C19.0057 34.4242 18.8523 34.2169 18.7443 33.9517C18.6345 33.6847 18.5795 33.3769 18.5795 33.0284C18.5795 32.517 18.6884 32.1146 18.9062 31.821C19.1241 31.5256 19.4186 31.3428 19.7898 31.2727ZM23 29.4304L18.6364 30.6634V29.6151L21.7045 28.848V28.8082L18.6364 28.0241V26.9872L21.6875 26.2031V26.1605L18.6364 25.4048V24.3537L23 25.5895V26.6605L20.0511 27.4787V27.5384L23 28.3565V29.4304ZM23.0852 21.8572C23.0852 22.2834 22.9915 22.6527 22.804 22.9652C22.6165 23.2777 22.3542 23.5201 22.017 23.6925C21.6799 23.8629 21.286 23.9482 20.8352 23.9482C20.3845 23.9482 19.9896 23.8629 19.6506 23.6925C19.3116 23.5201 19.0483 23.2777 18.8608 22.9652C18.6733 22.6527 18.5795 22.2834 18.5795 21.8572C18.5795 21.4311 18.6733 21.0618 18.8608 20.7493C19.0483 20.4368 19.3116 20.1953 19.6506 20.0249C19.9896 19.8525 20.3845 19.7663 20.8352 19.7663C21.286 19.7663 21.6799 19.8525 22.017 20.0249C22.3542 20.1953 22.6165 20.4368 22.804 20.7493C22.9915 21.0618 23.0852 21.4311 23.0852 21.8572ZM22.2614 21.8516C22.2614 21.6205 22.1979 21.4273 22.071 21.272C21.9422 21.1167 21.7699 21.0012 21.554 20.9254C21.3381 20.8478 21.0975 20.8089 20.8324 20.8089C20.5653 20.8089 20.3239 20.8478 20.108 20.9254C19.8902 21.0012 19.7169 21.1167 19.5881 21.272C19.4593 21.4273 19.3949 21.6205 19.3949 21.8516C19.3949 22.0883 19.4593 22.2853 19.5881 22.4425C19.7169 22.5978 19.8902 22.7143 20.108 22.7919C20.3239 22.8677 20.5653 22.9055 20.8324 22.9055C21.0975 22.9055 21.3381 22.8677 21.554 22.7919C21.7699 22.7143 21.9422 22.5978 22.071 22.4425C22.1979 22.2853 22.2614 22.0883 22.2614 21.8516ZM23 18.8935H18.6364V17.8963H19.3636V17.8509C19.1117 17.7713 18.9176 17.6349 18.7812 17.4418C18.643 17.2467 18.5739 17.0241 18.5739 16.7741C18.5739 16.7173 18.5767 16.6539 18.5824 16.5838C18.5862 16.5118 18.5928 16.4522 18.6023 16.4048H19.5483C19.5331 16.4484 19.5199 16.5175 19.5085 16.6122C19.4953 16.705 19.4886 16.795 19.4886 16.8821C19.4886 17.0696 19.5294 17.2382 19.6108 17.3878C19.6903 17.5355 19.8011 17.652 19.9432 17.7372C20.0852 17.8224 20.2491 17.8651 20.4347 17.8651H23V18.8935ZM23.0767 14.282C23.0767 14.6248 22.9886 14.9316 22.8125 15.2024C22.6364 15.4732 22.3807 15.6873 22.0455 15.8445C21.7102 16.0017 21.303 16.0803 20.8239 16.0803C20.339 16.0803 19.9299 16.0007 19.5966 15.8416C19.2614 15.6806 19.0085 15.4638 18.8381 15.1911C18.6657 14.9183 18.5795 14.6143 18.5795 14.2791C18.5795 14.0234 18.6231 13.8132 18.7102 13.6484C18.7955 13.4837 18.8987 13.353 19.0199 13.2564C19.1392 13.1598 19.2519 13.085 19.358 13.032V12.9893H17.1818V11.9581H23V12.9695H22.3125V13.032C22.4186 13.085 22.5312 13.1617 22.6506 13.2621C22.768 13.3625 22.8684 13.495 22.9517 13.6598C23.035 13.8246 23.0767 14.032 23.0767 14.282ZM22.233 13.995C22.233 13.7772 22.1742 13.5916 22.0568 13.4382C21.9375 13.2848 21.7718 13.1683 21.5597 13.0888C21.3475 13.0092 21.1004 12.9695 20.8182 12.9695C20.536 12.9695 20.2907 13.0092 20.0824 13.0888C19.8741 13.1664 19.7121 13.282 19.5966 13.4354C19.4811 13.5869 19.4233 13.7734 19.4233 13.995C19.4233 14.2242 19.483 14.4155 19.6023 14.5689C19.7216 14.7223 19.8864 14.8378 20.0966 14.9155C20.3068 14.9931 20.5473 15.032 20.8182 15.032C21.0909 15.032 21.3343 14.9931 21.5483 14.9155C21.7604 14.8359 21.928 14.7195 22.0511 14.5661C22.1723 14.4107 22.233 14.2204 22.233 13.995ZM19.7898 7.41335L19.892 8.35085C19.7973 8.37737 19.7083 8.42377 19.625 8.49006C19.5417 8.55445 19.4744 8.64157 19.4233 8.75142C19.3722 8.86127 19.3466 8.99574 19.3466 9.15483C19.3466 9.36884 19.393 9.54877 19.4858 9.6946C19.5786 9.83854 19.6989 9.90956 19.8466 9.90767C19.9735 9.90956 20.0767 9.86316 20.1562 9.76847C20.2358 9.67187 20.3011 9.51278 20.3523 9.29119L20.5114 8.54688C20.6004 8.134 20.7415 7.82718 20.9347 7.62642C21.1278 7.42377 21.3807 7.3215 21.6932 7.3196C21.9678 7.3215 22.2102 7.40199 22.4205 7.56108C22.6288 7.71828 22.7917 7.93703 22.9091 8.21733C23.0265 8.49763 23.0852 8.8196 23.0852 9.18324C23.0852 9.71733 22.9735 10.1473 22.75 10.473C22.5246 10.7988 22.2112 10.9929 21.8097 11.0554L21.7131 10.0526C21.91 10.0071 22.0587 9.91051 22.1591 9.76278C22.2595 9.61506 22.3097 9.42282 22.3097 9.18608C22.3097 8.94176 22.2595 8.74574 22.1591 8.59801C22.0587 8.44839 21.9347 8.37358 21.7869 8.37358C21.6619 8.37358 21.5587 8.42187 21.4773 8.51847C21.3958 8.61316 21.3333 8.76089 21.2898 8.96165L21.1335 9.70597C21.0464 10.1245 20.8996 10.4342 20.6932 10.6349C20.4848 10.8357 20.2216 10.9351 19.9034 10.9332C19.6345 10.9351 19.4015 10.8622 19.2045 10.7145C19.0057 10.5649 18.8523 10.3575 18.7443 10.0923C18.6345 9.82528 18.5795 9.51752 18.5795 9.16903C18.5795 8.65767 18.6884 8.25521 18.9062 7.96165C19.1241 7.66619 19.4186 7.48343 19.7898 7.41335Z" fill="white"/>
<path d="M15.7589 87.8692C15.3475 87.5266 14.7872 87.2839 14.2199 87.2839C14.1418 87.2839 14.0638 87.291 14 87.3053C14.0213 87.862 14.3688 88.5329 14.8369 88.9326C15.1915 89.2466 15.7589 89.5393 16.3262 89.5393C16.4113 89.5393 16.4965 89.525 16.5248 89.5178C16.5319 89.4822 16.539 89.4251 16.539 89.368C16.539 88.8684 16.2057 88.2403 15.7589 87.8692ZM16.6596 87.4766C16.6596 88.3117 17.1631 88.9897 17.1631 89.4251C17.1631 89.889 16.6879 90.4956 16.6879 91.2236C16.6879 92.6011 17.8227 94 19.9574 94C21.2908 94 22.695 93.4861 23.6028 92.8438C24.3688 92.2942 25 91.816 25 91.1237C25 90.4385 24.5461 90.1388 24.5461 89.2895C24.5461 88.4259 24.9858 88.2331 24.9858 87.4766C24.9858 86.7272 24.305 86.2276 23.6312 85.7565C22.8582 85.2284 22.1064 85.0071 22.0709 85C22.0567 85.0428 21.4752 86.4774 19.844 86.4774C18.4326 86.4774 17.8014 85.3497 17.7518 85.2855C16.6879 86.0278 16.6596 87.1626 16.6596 87.4766Z" fill="white"/>
<defs>
<filter id="filter0_d_182_660" x="0" y="0" width="39" height="130" filterUnits="userSpaceOnUse" color-interpolation-filters="sRGB">
<feFlood flood-opacity="0" result="BackgroundImageFix"/>
<feColorMatrix in="SourceAlpha" type="matrix" values="0 0 0 0 0 0 0 0 0 0 0 0 0 0 0 0 0 0 127 0" result="hardAlpha"/>
<feMorphology radius="10" operator="erode" in="SourceAlpha" result="effect1_dropShadow_182_660"/>
<feOffset dy="20"/>
<feGaussianBlur stdDeviation="10"/>
<feColorMatrix type="matrix" values="0 0 0 0 0 0 0 0 0 0 0 0 0 0 0 0 0 0 0.4 0"/>
<feBlend mode="normal" in2="BackgroundImageFix" result="effect1_dropShadow_182_660"/>
<feBlend mode="normal" in="SourceGraphic" in2="effect1_dropShadow_182_660" result="shape"/>
</filter>
<radialGradient id="paint0_radial_182_660" cx="0" cy="0" r="1" gradientUnits="userSpaceOnUse" gradientTransform="translate(10 100) rotate(10.758) scale(101.789 29.629)">
<stop stop-color="#8A0002"/>
<stop offset="1" stop-color="#07004E"/>
</radialGradient>
<linearGradient id="paint1_linear_182_660" x1="10" y1="100" x2="40.9243" y2="133.706" gradientUnits="userSpaceOnUse">
<stop stop-color="white" stop-opacity="0.2"/>
<stop offset="0.383569" stop-color="white" stop-opacity="0.2"/>
<stop offset="0.383669" stop-color="white" stop-opacity="0.28"/>
<stop offset="0.805208" stop-color="white" stop-opacity="0"/>
</linearGradient>
<linearGradient id="paint2_linear_182_660" x1="60" y1="100" x2="60" y2="119" gradientUnits="userSpaceOnUse">
<stop stop-color="white"/>
<stop offset="1" stop-color="#F9A000"/>
</linearGradient>
<clipPath id="clip0_182_660">
<rect x="10" y="100" width="100" height="19" rx="5" transform="rotate(-90 10 100)" fill="white"/>
</clipPath>
</defs>
</svg>
