<svg width="108" height="49" viewBox="0 0 108 49" fill="none" xmlns="http://www.w3.org/2000/svg">
<g filter="url(#filter0_d_182_660)">
<rect x="-2" width="100" height="19" rx="5" fill="url(#paint0_radial_182_660)" fill-opacity="0.8"/>
<rect x="-2" width="100" height="19" rx="5" fill="url(#paint1_linear_182_660)"/>
<rect x="-1.5" y="0.5" width="99" height="18" rx="4.5" stroke="url(#paint2_linear_182_660)" stroke-opacity="0.2"/>
</g>
<path d="M20.7976 13H19.6726L21.7209 7.18182H23.022L25.0732 13H23.9482L22.3942 8.375H22.3487L20.7976 13ZM20.8345 10.7188H23.9027V11.5653H20.8345V10.7188ZM27.2805 13.0767C26.9377 13.0767 26.6309 12.9886 26.3601 12.8125C26.0893 12.6364 25.8752 12.3807 25.718 12.0455C25.5608 11.7102 25.4822 11.303 25.4822 10.8239C25.4822 10.339 25.5618 9.92992 25.7209 9.59659C25.8819 9.26136 26.0987 9.00852 26.3714 8.83807C26.6442 8.66572 26.9482 8.57955 27.2834 8.57955C27.5391 8.57955 27.7493 8.62311 27.9141 8.71023C28.0788 8.79545 28.2095 8.89867 28.3061 9.01989C28.4027 9.1392 28.4775 9.25189 28.5305 9.35795H28.5732V7.18182H29.6044V13H28.593V12.3125H28.5305C28.4775 12.4186 28.4008 12.5312 28.3004 12.6506C28.2 12.768 28.0675 12.8684 27.9027 12.9517C27.7379 13.035 27.5305 13.0767 27.2805 13.0767ZM27.5675 12.233C27.7853 12.233 27.9709 12.1742 28.1243 12.0568C28.2777 11.9375 28.3942 11.7718 28.4737 11.5597C28.5533 11.3475 28.593 11.1004 28.593 10.8182C28.593 10.536 28.5533 10.2907 28.4737 10.0824C28.3961 9.87405 28.2805 9.71212 28.1271 9.59659C27.9756 9.48106 27.7891 9.4233 27.5675 9.4233C27.3383 9.4233 27.147 9.48295 26.9936 9.60227C26.8402 9.72159 26.7247 9.88636 26.647 10.0966C26.5694 10.3068 26.5305 10.5473 26.5305 10.8182C26.5305 11.0909 26.5694 11.3343 26.647 11.5483C26.7266 11.7604 26.843 11.928 26.9964 12.0511C27.1518 12.1723 27.3421 12.233 27.5675 12.233ZM32.3196 13.0767C31.9768 13.0767 31.67 12.9886 31.3991 12.8125C31.1283 12.6364 30.9143 12.3807 30.7571 12.0455C30.5999 11.7102 30.5213 11.303 30.5213 10.8239C30.5213 10.339 30.6009 9.92992 30.7599 9.59659C30.9209 9.26136 31.1378 9.00852 31.4105 8.83807C31.6832 8.66572 31.9872 8.57955 32.3224 8.57955C32.5781 8.57955 32.7884 8.62311 32.9531 8.71023C33.1179 8.79545 33.2486 8.89867 33.3452 9.01989C33.4418 9.1392 33.5166 9.25189 33.5696 9.35795H33.6122V7.18182H34.6435V13H33.6321V12.3125H33.5696C33.5166 12.4186 33.4399 12.5312 33.3395 12.6506C33.2391 12.768 33.1065 12.8684 32.9418 12.9517C32.777 13.035 32.5696 13.0767 32.3196 13.0767ZM32.6065 12.233C32.8243 12.233 33.0099 12.1742 33.1634 12.0568C33.3168 11.9375 33.4332 11.7718 33.5128 11.5597C33.5923 11.3475 33.6321 11.1004 33.6321 10.8182C33.6321 10.536 33.5923 10.2907 33.5128 10.0824C33.4351 9.87405 33.3196 9.71212 33.1662 9.59659C33.0147 9.48106 32.8281 9.4233 32.6065 9.4233C32.3774 9.4233 32.1861 9.48295 32.0327 9.60227C31.8793 9.72159 31.7637 9.88636 31.6861 10.0966C31.6084 10.3068 31.5696 10.5473 31.5696 10.8182C31.5696 11.0909 31.6084 11.3343 31.6861 11.5483C31.7656 11.7604 31.8821 11.928 32.0355 12.0511C32.1908 12.1723 32.3812 12.233 32.6065 12.233ZM37.5135 8.06534V7.18182H42.1555V8.06534H40.3572V13H39.3118V8.06534H37.5135ZM44.2756 13.0852C43.8494 13.0852 43.4801 12.9915 43.1676 12.804C42.8551 12.6165 42.6127 12.3542 42.4403 12.017C42.2699 11.6799 42.1847 11.286 42.1847 10.8352C42.1847 10.3845 42.2699 9.98958 42.4403 9.65057C42.6127 9.31155 42.8551 9.0483 43.1676 8.8608C43.4801 8.6733 43.8494 8.57955 44.2756 8.57955C44.7017 8.57955 45.071 8.6733 45.3835 8.8608C45.696 9.0483 45.9375 9.31155 46.108 9.65057C46.2803 9.98958 46.3665 10.3845 46.3665 10.8352C46.3665 11.286 46.2803 11.6799 46.108 12.017C45.9375 12.3542 45.696 12.6165 45.3835 12.804C45.071 12.9915 44.7017 13.0852 44.2756 13.0852ZM44.2812 12.2614C44.5123 12.2614 44.7055 12.1979 44.8608 12.071C45.0161 11.9422 45.1316 11.7699 45.2074 11.554C45.285 11.3381 45.3239 11.0975 45.3239 10.8324C45.3239 10.5653 45.285 10.3239 45.2074 10.108C45.1316 9.89015 45.0161 9.71686 44.8608 9.58807C44.7055 9.45928 44.5123 9.39489 44.2812 9.39489C44.0445 9.39489 43.8475 9.45928 43.6903 9.58807C43.535 9.71686 43.4186 9.89015 43.3409 10.108C43.2652 10.3239 43.2273 10.5653 43.2273 10.8324C43.2273 11.0975 43.2652 11.3381 43.3409 11.554C43.4186 11.7699 43.535 11.9422 43.6903 12.071C43.8475 12.1979 44.0445 12.2614 44.2812 12.2614ZM49.2692 13V7.18182H51.451C51.898 7.18182 52.273 7.26515 52.576 7.43182C52.8809 7.59848 53.111 7.82765 53.2663 8.11932C53.4235 8.40909 53.5021 8.73864 53.5021 9.10795C53.5021 9.48106 53.4235 9.8125 53.2663 10.1023C53.1091 10.392 52.8771 10.6203 52.5703 10.7869C52.2635 10.9517 51.8857 11.0341 51.4368 11.0341H49.9908V10.1676H51.2947C51.5561 10.1676 51.7701 10.1222 51.9368 10.0312C52.1035 9.94034 52.2266 9.81534 52.3061 9.65625C52.3875 9.49716 52.4283 9.31439 52.4283 9.10795C52.4283 8.90152 52.3875 8.7197 52.3061 8.5625C52.2266 8.4053 52.1025 8.28314 51.9339 8.19602C51.7673 8.10701 51.5523 8.0625 51.2891 8.0625H50.3232V13H49.2692ZM55.5497 13.0881C55.2732 13.0881 55.0241 13.0388 54.8026 12.9403C54.5829 12.84 54.4086 12.6922 54.2798 12.4972C54.1529 12.3021 54.0895 12.0616 54.0895 11.7756C54.0895 11.5294 54.1349 11.3258 54.2259 11.1648C54.3168 11.0038 54.4408 10.875 54.598 10.7784C54.7552 10.6818 54.9323 10.6089 55.1293 10.5597C55.3281 10.5085 55.5336 10.4716 55.7457 10.4489C56.0014 10.4223 56.2088 10.3987 56.3679 10.3778C56.527 10.3551 56.6425 10.321 56.7145 10.2756C56.7884 10.2282 56.8253 10.1553 56.8253 10.0568V10.0398C56.8253 9.82576 56.7618 9.66004 56.6349 9.54261C56.508 9.42519 56.3253 9.36648 56.0866 9.36648C55.8348 9.36648 55.6349 9.4214 55.4872 9.53125C55.3414 9.6411 55.2429 9.77083 55.1918 9.92045L54.2315 9.78409C54.3073 9.51894 54.4323 9.29735 54.6065 9.11932C54.7808 8.93939 54.9938 8.80492 55.2457 8.71591C55.4976 8.625 55.776 8.57955 56.081 8.57955C56.2912 8.57955 56.5005 8.60417 56.7088 8.65341C56.9171 8.70265 57.1075 8.78409 57.2798 8.89773C57.4522 9.00947 57.5904 9.16193 57.6946 9.35511C57.8007 9.5483 57.8537 9.78977 57.8537 10.0795V13H56.8651V12.4006H56.831C56.7685 12.5218 56.6804 12.6354 56.5668 12.7415C56.455 12.8456 56.3139 12.9299 56.1435 12.9943C55.9749 13.0568 55.777 13.0881 55.5497 13.0881ZM55.8168 12.3324C56.0232 12.3324 56.2022 12.2917 56.3537 12.2102C56.5052 12.1269 56.6217 12.017 56.7031 11.8807C56.7865 11.7443 56.8281 11.5956 56.8281 11.4347V10.9205C56.7959 10.947 56.741 10.9716 56.6634 10.9943C56.5876 11.017 56.5024 11.0369 56.4077 11.054C56.313 11.071 56.2192 11.0862 56.1264 11.0994C56.0336 11.1127 55.9531 11.1241 55.8849 11.1335C55.7315 11.1544 55.5942 11.1884 55.473 11.2358C55.3518 11.2831 55.2562 11.3494 55.1861 11.4347C55.116 11.518 55.081 11.6259 55.081 11.7585C55.081 11.9479 55.1501 12.0909 55.2884 12.1875C55.4266 12.2841 55.6027 12.3324 55.8168 12.3324ZM62.3366 9.78977L61.3991 9.89205C61.3726 9.79735 61.3262 9.70833 61.2599 9.625C61.1955 9.54167 61.1084 9.47443 60.9986 9.4233C60.8887 9.37216 60.7543 9.34659 60.5952 9.34659C60.3812 9.34659 60.2012 9.39299 60.0554 9.4858C59.9115 9.5786 59.8404 9.69886 59.8423 9.84659C59.8404 9.97348 59.8868 10.0767 59.9815 10.1562C60.0781 10.2358 60.2372 10.3011 60.4588 10.3523L61.2031 10.5114C61.616 10.6004 61.9228 10.7415 62.1236 10.9347C62.3262 11.1278 62.4285 11.3807 62.4304 11.6932C62.4285 11.9678 62.348 12.2102 62.1889 12.4205C62.0317 12.6288 61.813 12.7917 61.5327 12.9091C61.2524 13.0265 60.9304 13.0852 60.5668 13.0852C60.0327 13.0852 59.6027 12.9735 59.277 12.75C58.9512 12.5246 58.7571 12.2112 58.6946 11.8097L59.6974 11.7131C59.7429 11.91 59.8395 12.0587 59.9872 12.1591C60.1349 12.2595 60.3272 12.3097 60.5639 12.3097C60.8082 12.3097 61.0043 12.2595 61.152 12.1591C61.3016 12.0587 61.3764 11.9347 61.3764 11.7869C61.3764 11.6619 61.3281 11.5587 61.2315 11.4773C61.1368 11.3958 60.9891 11.3333 60.7884 11.2898L60.044 11.1335C59.6255 11.0464 59.3158 10.8996 59.1151 10.6932C58.9143 10.4848 58.8149 10.2216 58.8168 9.90341C58.8149 9.63447 58.8878 9.40152 59.0355 9.20455C59.1851 9.00568 59.3925 8.85227 59.6577 8.74432C59.9247 8.63447 60.2325 8.57955 60.581 8.57955C61.0923 8.57955 61.4948 8.68845 61.7884 8.90625C62.0838 9.12405 62.2666 9.41856 62.3366 9.78977ZM66.7273 9.78977L65.7898 9.89205C65.7633 9.79735 65.7169 9.70833 65.6506 9.625C65.5862 9.54167 65.4991 9.47443 65.3892 9.4233C65.2794 9.37216 65.1449 9.34659 64.9858 9.34659C64.7718 9.34659 64.5919 9.39299 64.446 9.4858C64.3021 9.5786 64.2311 9.69886 64.233 9.84659C64.2311 9.97348 64.2775 10.0767 64.3722 10.1562C64.4688 10.2358 64.6278 10.3011 64.8494 10.3523L65.5938 10.5114C66.0066 10.6004 66.3134 10.7415 66.5142 10.9347C66.7169 11.1278 66.8191 11.3807 66.821 11.6932C66.8191 11.9678 66.7386 12.2102 66.5795 12.4205C66.4223 12.6288 66.2036 12.7917 65.9233 12.9091C65.643 13.0265 65.321 13.0852 64.9574 13.0852C64.4233 13.0852 63.9934 12.9735 63.6676 12.75C63.3419 12.5246 63.1477 12.2112 63.0852 11.8097L64.0881 11.7131C64.1335 11.91 64.2301 12.0587 64.3778 12.1591C64.5256 12.2595 64.7178 12.3097 64.9545 12.3097C65.1989 12.3097 65.3949 12.2595 65.5426 12.1591C65.6922 12.0587 65.767 11.9347 65.767 11.7869C65.767 11.6619 65.7188 11.5587 65.6222 11.4773C65.5275 11.3958 65.3797 11.3333 65.179 11.2898L64.4347 11.1335C64.0161 11.0464 63.7064 10.8996 63.5057 10.6932C63.3049 10.4848 63.2055 10.2216 63.2074 9.90341C63.2055 9.63447 63.2784 9.40152 63.4261 9.20455C63.5758 9.00568 63.7831 8.85227 64.0483 8.74432C64.3153 8.63447 64.6231 8.57955 64.9716 8.57955C65.483 8.57955 65.8854 8.68845 66.179 8.90625C66.4744 9.12405 66.6572 9.41856 66.7273 9.78977ZM68.5696 13L67.3366 8.63636H68.3849L69.152 11.7045H69.1918L69.9759 8.63636H71.0128L71.7969 11.6875H71.8395L72.5952 8.63636H73.6463L72.4105 13H71.3395L70.5213 10.0511H70.4616L69.6435 13H68.5696ZM76.1428 13.0852C75.7166 13.0852 75.3473 12.9915 75.0348 12.804C74.7223 12.6165 74.4799 12.3542 74.3075 12.017C74.1371 11.6799 74.0518 11.286 74.0518 10.8352C74.0518 10.3845 74.1371 9.98958 74.3075 9.65057C74.4799 9.31155 74.7223 9.0483 75.0348 8.8608C75.3473 8.6733 75.7166 8.57955 76.1428 8.57955C76.5689 8.57955 76.9382 8.6733 77.2507 8.8608C77.5632 9.0483 77.8047 9.31155 77.9751 9.65057C78.1475 9.98958 78.2337 10.3845 78.2337 10.8352C78.2337 11.286 78.1475 11.6799 77.9751 12.017C77.8047 12.3542 77.5632 12.6165 77.2507 12.804C76.9382 12.9915 76.5689 13.0852 76.1428 13.0852ZM76.1484 12.2614C76.3795 12.2614 76.5727 12.1979 76.728 12.071C76.8833 11.9422 76.9988 11.7699 77.0746 11.554C77.1522 11.3381 77.1911 11.0975 77.1911 10.8324C77.1911 10.5653 77.1522 10.3239 77.0746 10.108C76.9988 9.89015 76.8833 9.71686 76.728 9.58807C76.5727 9.45928 76.3795 9.39489 76.1484 9.39489C75.9117 9.39489 75.7147 9.45928 75.5575 9.58807C75.4022 9.71686 75.2857 9.89015 75.2081 10.108C75.1323 10.3239 75.0945 10.5653 75.0945 10.8324C75.0945 11.0975 75.1323 11.3381 75.2081 11.554C75.2857 11.7699 75.4022 11.9422 75.5575 12.071C75.7147 12.1979 75.9117 12.2614 76.1484 12.2614ZM79.1065 13V8.63636H80.1037V9.36364H80.1491C80.2287 9.11174 80.3651 8.91761 80.5582 8.78125C80.7533 8.64299 80.9759 8.57386 81.2259 8.57386C81.2827 8.57386 81.3461 8.5767 81.4162 8.58239C81.4882 8.58617 81.5478 8.5928 81.5952 8.60227V9.5483C81.5516 9.53314 81.4825 9.51989 81.3878 9.50852C81.295 9.49527 81.205 9.48864 81.1179 9.48864C80.9304 9.48864 80.7618 9.52936 80.6122 9.6108C80.4645 9.69034 80.348 9.80114 80.2628 9.94318C80.1776 10.0852 80.1349 10.2491 80.1349 10.4347V13H79.1065ZM83.718 13.0767C83.3752 13.0767 83.0684 12.9886 82.7976 12.8125C82.5268 12.6364 82.3127 12.3807 82.1555 12.0455C81.9983 11.7102 81.9197 11.303 81.9197 10.8239C81.9197 10.339 81.9993 9.92992 82.1584 9.59659C82.3194 9.26136 82.5362 9.00852 82.8089 8.83807C83.0817 8.66572 83.3857 8.57955 83.7209 8.57955C83.9766 8.57955 84.1868 8.62311 84.3516 8.71023C84.5163 8.79545 84.647 8.89867 84.7436 9.01989C84.8402 9.1392 84.915 9.25189 84.968 9.35795H85.0107V7.18182H86.0419V13H85.0305V12.3125H84.968C84.915 12.4186 84.8383 12.5312 84.7379 12.6506C84.6375 12.768 84.505 12.8684 84.3402 12.9517C84.1754 13.035 83.968 13.0767 83.718 13.0767ZM84.005 12.233C84.2228 12.233 84.4084 12.1742 84.5618 12.0568C84.7152 11.9375 84.8317 11.7718 84.9112 11.5597C84.9908 11.3475 85.0305 11.1004 85.0305 10.8182C85.0305 10.536 84.9908 10.2907 84.9112 10.0824C84.8336 9.87405 84.718 9.71212 84.5646 9.59659C84.4131 9.48106 84.2266 9.4233 84.005 9.4233C83.7758 9.4233 83.5845 9.48295 83.4311 9.60227C83.2777 9.72159 83.1622 9.88636 83.0845 10.0966C83.0069 10.3068 82.968 10.5473 82.968 10.8182C82.968 11.0909 83.0069 11.3343 83.0845 11.5483C83.1641 11.7604 83.2805 11.928 83.4339 12.0511C83.5893 12.1723 83.7796 12.233 84.005 12.233ZM90.5866 9.78977L89.6491 9.89205C89.6226 9.79735 89.5762 9.70833 89.5099 9.625C89.4455 9.54167 89.3584 9.47443 89.2486 9.4233C89.1387 9.37216 89.0043 9.34659 88.8452 9.34659C88.6312 9.34659 88.4512 9.39299 88.3054 9.4858C88.1615 9.5786 88.0904 9.69886 88.0923 9.84659C88.0904 9.97348 88.1368 10.0767 88.2315 10.1562C88.3281 10.2358 88.4872 10.3011 88.7088 10.3523L89.4531 10.5114C89.866 10.6004 90.1728 10.7415 90.3736 10.9347C90.5762 11.1278 90.6785 11.3807 90.6804 11.6932C90.6785 11.9678 90.598 12.2102 90.4389 12.4205C90.2817 12.6288 90.063 12.7917 89.7827 12.9091C89.5024 13.0265 89.1804 13.0852 88.8168 13.0852C88.2827 13.0852 87.8527 12.9735 87.527 12.75C87.2012 12.5246 87.0071 12.2112 86.9446 11.8097L87.9474 11.7131C87.9929 11.91 88.0895 12.0587 88.2372 12.1591C88.3849 12.2595 88.5772 12.3097 88.8139 12.3097C89.0582 12.3097 89.2543 12.2595 89.402 12.1591C89.5516 12.0587 89.6264 11.9347 89.6264 11.7869C89.6264 11.6619 89.5781 11.5587 89.4815 11.4773C89.3868 11.3958 89.2391 11.3333 89.0384 11.2898L88.294 11.1335C87.8755 11.0464 87.5658 10.8996 87.3651 10.6932C87.1643 10.4848 87.0649 10.2216 87.0668 9.90341C87.0649 9.63447 87.1378 9.40152 87.2855 9.20455C87.4351 9.00568 87.6425 8.85227 87.9077 8.74432C88.1747 8.63447 88.4825 8.57955 88.831 8.57955C89.3423 8.57955 89.7448 8.68845 90.0384 8.90625C90.3338 9.12405 90.5166 9.41856 90.5866 9.78977Z" fill="white"/>
<path d="M10.1308 5.75887C10.4734 5.34752 10.7161 4.78723 10.7161 4.21986C10.7161 4.14184 10.709 4.06383 10.6947 4C10.138 4.02128 9.46709 4.36879 9.06741 4.83688C8.75337 5.19149 8.46075 5.75887 8.46075 6.32624C8.46075 6.41135 8.47502 6.49645 8.48216 6.52482C8.51784 6.53192 8.57494 6.53901 8.63204 6.53901C9.13164 6.53901 9.75971 6.20567 10.1308 5.75887ZM10.5234 6.65957C9.68834 6.65957 9.01031 7.16312 8.57494 7.16312C8.11102 7.16312 7.50436 6.68794 6.77637 6.68794C5.39889 6.68794 4 7.82269 4 9.95745C4 11.2908 4.51388 12.695 5.15623 13.6028C5.70579 14.3688 6.18398 15 6.87629 15C7.56146 15 7.86122 14.5461 8.71055 14.5461C9.57415 14.5461 9.76685 14.9858 10.5234 14.9858C11.2728 14.9858 11.7724 14.305 12.2435 13.6312C12.7716 12.8582 12.9929 12.1064 13 12.0709C12.9572 12.0567 11.5226 11.4752 11.5226 9.84397C11.5226 8.43263 12.6503 7.80142 12.7145 7.75177C11.9722 6.68794 10.8374 6.65957 10.5234 6.65957Z" fill="white"/>
<defs>
<filter id="filter0_d_182_660" x="-12" y="0" width="120" height="49" filterUnits="userSpaceOnUse" color-interpolation-filters="sRGB">
<feFlood flood-opacity="0" result="BackgroundImageFix"/>
<feColorMatrix in="SourceAlpha" type="matrix" values="0 0 0 0 0 0 0 0 0 0 0 0 0 0 0 0 0 0 127 0" result="hardAlpha"/>
<feMorphology radius="10" operator="erode" in="SourceAlpha" result="effect1_dropShadow_182_660"/>
<feOffset dy="20"/>
<feGaussianBlur stdDeviation="10"/>
<feColorMatrix type="matrix" values="0 0 0 0 0 0 0 0 0 0 0 0 0 0 0 0 0 0 0.4 0"/>
<feBlend mode="normal" in2="BackgroundImageFix" result="effect1_dropShadow_182_660"/>
<feBlend mode="normal" in="SourceGraphic" in2="effect1_dropShadow_182_660" result="shape"/>
</filter>
<radialGradient id="paint0_radial_182_660" cx="0" cy="0" r="1" gradientUnits="userSpaceOnUse" gradientTransform="translate(-2) rotate(10.758) scale(101.789 29.629)">
<stop stop-color="#8A0002"/>
<stop offset="1" stop-color="#07004E"/>
</radialGradient>
<linearGradient id="paint1_linear_182_660" x1="-2" y1="0" x2="28.9243" y2="33.7062" gradientUnits="userSpaceOnUse">
<stop stop-color="white" stop-opacity="0.2"/>
<stop offset="0.383569" stop-color="white" stop-opacity="0.2"/>
<stop offset="0.383669" stop-color="white" stop-opacity="0.28"/>
<stop offset="0.805208" stop-color="white" stop-opacity="0"/>
</linearGradient>
<linearGradient id="paint2_linear_182_660" x1="48" y1="0" x2="48" y2="19" gradientUnits="userSpaceOnUse">
<stop stop-color="white"/>
<stop offset="1" stop-color="#F9A000"/>
</linearGradient>
</defs>
</svg>
