<svg width="274" height="16" viewBox="0 0 274 16" fill="none" xmlns="http://www.w3.org/2000/svg">
<path d="M6.04361 13.8111V0L1.01744 0C0.488372 0 0 0.285185 0 1.01852C0 1.75185 0.488372 2.03704 1.01744 2.03704H4.00872V13.8111H1.01744C0.488372 13.8111 0 14.0963 0 14.8296C0 15.563 0.488372 15.8481 1.01744 15.8481H9.03489C9.56395 15.8481 10.0523 15.563 10.0523 14.8296V9.6963C10.0523 9.10556 9.78779 8.67778 9.03489 8.67778C8.28198 8.67778 8.01744 9.10556 8.01744 9.6963V13.8111H6.04361Z" fill="#232323"/>
<path d="M16.6805 8.94259H22.4189C23.0904 8.94259 23.5584 8.84074 24.0671 8.37222C24.6369 7.84259 24.6979 7.29259 24.6979 6.55926V2.38333C24.6979 1.65 24.6369 1.1 24.0671 0.57037C23.5584 0.101852 23.0904 0 22.4189 0L15.663 0C15.134 0 14.6456 0.285185 14.6456 1.01852C14.6456 1.75185 15.134 2.03704 15.663 2.03704H22.663V6.90556H16.945C15.4189 6.90556 14.6456 7.67963 14.6456 9.20741V15.8481H23.6805C24.2096 15.8481 24.6979 15.563 24.6979 14.8296C24.6979 14.0963 24.2096 13.8111 23.6805 13.8111H16.6805V8.94259Z" fill="#232323"/>
<path d="M37.3086 2.03704V5.41852C37.3086 6.55926 36.861 6.90556 36.2912 6.90556H32.3028C31.7738 6.90556 31.2854 7.19074 31.2854 7.92408C31.2854 8.65741 31.7738 8.94259 32.3028 8.94259H36.2912C36.861 8.94259 37.3086 9.28889 37.3086 10.4296V13.8111H30.3086C29.7796 13.8111 29.2912 14.0963 29.2912 14.8296C29.2912 15.563 29.7796 15.8481 30.3086 15.8481H37.3086C38.4685 15.8481 39.3435 14.9722 39.3435 13.8111V9.9C39.3435 9.08519 39.1807 8.49445 38.5499 7.92408C39.1807 7.3537 39.3435 6.76296 39.3435 5.94815V2.03704C39.3435 0.875927 38.4685 0 37.3086 0L30.3086 0C29.7796 0 29.2912 0.285185 29.2912 1.01852C29.2912 1.75185 29.7796 2.03704 30.3086 2.03704H37.3086Z" fill="#232323"/>
<path d="M46.9891 8.63704V1.01852C46.9891 0.50926 46.7449 0 45.9717 0C45.1984 0 44.9542 0.50926 44.9542 1.01852V10.6741H50.9368V14.8296C50.9368 15.4815 51.2217 15.8481 51.9542 15.8481C52.6868 15.8481 52.9717 15.4815 52.9717 14.8296V10.6741C53.5008 10.6741 53.9891 10.3889 53.9891 9.65556C53.9891 8.92222 53.5008 8.63704 52.9717 8.63704V2.75C52.9717 2.24074 52.7275 1.73148 51.9542 1.73148C51.181 1.73148 50.9368 2.24074 50.9368 2.75V8.63704H46.9891Z" fill="#232323"/>
<path d="M77.2774 2.03704H82.2629C82.792 2.03704 83.2803 1.75185 83.2803 1.01852C83.2803 0.285185 82.792 0 82.2629 0L75.2425 0V8.94259H81.2454V13.8111H76.5449C76.2193 13.8111 75.7513 13.5259 75.4664 13.4037L74.8559 13.1389C74.6321 13.037 74.4489 12.9759 74.2047 12.9759C73.6757 12.9759 73.228 13.4648 73.228 13.9944C73.228 14.7074 73.8385 14.8907 74.3879 15.1352L75.1611 15.4815C75.6699 15.7056 75.9751 15.8481 76.5042 15.8481H81.0216C81.7542 15.8481 82.2832 15.7667 82.7919 15.1556C83.2193 14.6463 83.2803 14.1981 83.2803 13.5667V9.20741C83.2803 8.49444 83.2193 8.00556 82.6495 7.47593C82.1611 7.00741 81.6728 6.90556 81.0216 6.90556H77.2774V2.03704Z" fill="#232323"/>
<path d="M89.9085 2.03704C90.4986 2.03704 90.9259 1.62963 90.9259 1.01852C90.9259 0.48889 90.4986 0 89.9695 0L88.7486 0C88.0364 0 87.8736 0.55 87.8736 1.01852V14.5648C87.8736 15.5019 88.2399 15.8481 89.1963 15.8481H96.6032C97.5189 15.8481 97.9259 15.5222 97.9259 14.5648V10.0019C97.9259 9.06482 97.7224 8.63704 96.705 8.63704H89.9085V2.03704ZM95.891 10.6741V13.8111H89.9085V10.6741H95.891Z" fill="#232323"/>
<path d="M110.537 2.03704V4.84815C110.537 5.74445 110.577 5.72408 109.906 6.31482L107.098 8.73889C106.589 9.18704 106.569 9.24815 106.569 9.92037V14.8296C106.569 15.4815 106.854 15.8481 107.586 15.8481C108.319 15.8481 108.604 15.4815 108.604 14.8296V10.8778C108.604 10.1648 108.644 10.1241 109.173 9.65556L112.022 7.19074C112.592 6.70185 112.572 6.62037 112.572 5.90741V0L103.537 0C102.885 0 102.519 0.57037 102.519 1.01852V2.03704C102.519 2.48519 102.885 3.05556 103.537 3.05556C104.188 3.05556 104.554 2.48519 104.554 2.03704H110.537Z" fill="#232323"/>
<path d="M121.235 6.90556V2.03704H123.147V6.90556H121.235ZM120.217 0C119.525 0 119.2 0.48889 119.2 1.01852V6.90556C118.569 6.90556 118.08 7.12963 117.714 7.47593C117.348 7.82222 117.165 8.33148 117.165 8.96296V13.8111C117.165 15.0537 117.938 15.8481 119.2 15.8481H125.182C126.444 15.8481 127.217 15.0537 127.217 13.8111V8.96296C127.217 8.33148 127.034 7.82222 126.668 7.47593C126.301 7.12963 125.813 6.90556 125.182 6.90556V1.01852C125.182 0.48889 124.857 0 124.165 0L120.217 0ZM119.2 13.8111V8.94259H125.182V13.8111H119.2Z" fill="#232323"/>
<path d="M154.473 13.8111C153.883 13.8111 153.456 14.2185 153.456 14.8296C153.456 15.3796 153.863 15.8481 154.473 15.8481H155.491C156.101 15.8481 156.508 15.3796 156.508 14.8296V1.01852C156.508 0.48889 156.061 0 155.491 0L147.473 0C146.904 0 146.456 0.48889 146.456 1.01852V6.23333C146.456 6.76296 146.904 7.25185 147.473 7.25185H154.473V13.8111ZM148.491 5.21482V2.03704H154.473V5.21482H148.491Z" fill="#232323"/>
<path d="M163.136 0C162.017 0 161.102 0.916667 161.102 2.03704V13.8111C161.102 14.9519 161.977 15.8481 163.136 15.8481H169.119C170.279 15.8481 171.154 14.9519 171.154 13.8111V2.03704C171.154 0.916667 170.238 0 169.119 0L163.136 0ZM163.136 13.8111V2.03704H169.119V13.8111H163.136Z" fill="#232323"/>
<path d="M177.782 0C176.663 0 175.747 0.916667 175.747 2.03704V13.8111C175.747 14.9519 176.622 15.8481 177.782 15.8481H183.765C184.925 15.8481 185.8 14.9519 185.8 13.8111V2.03704C185.8 0.916667 184.884 0 183.765 0L177.782 0ZM177.782 13.8111V2.03704H183.765V13.8111H177.782Z" fill="#232323"/>
<path d="M192.428 0C191.308 0 190.393 0.916667 190.393 2.03704V13.8111C190.393 14.9519 191.268 15.8481 192.428 15.8481H198.41C199.57 15.8481 200.445 14.9519 200.445 13.8111V2.03704C200.445 0.916667 199.529 0 198.41 0L192.428 0ZM192.428 13.8111V2.03704H198.41V13.8111H192.428Z" fill="#232323"/>
<path d="M221.719 0C220.6 0 219.684 0.916667 219.684 2.03704V13.8111C219.684 14.9519 220.559 15.8481 221.719 15.8481H227.701C228.861 15.8481 229.736 14.9519 229.736 13.8111V2.03704C229.736 0.916667 228.821 0 227.701 0L221.719 0ZM221.719 13.8111V2.03704H227.701V13.8111H221.719Z" fill="#232323"/>
<path d="M236.364 0C235.245 0 234.33 0.916667 234.33 2.03704V13.8111C234.33 14.9519 235.205 15.8481 236.364 15.8481H242.347C243.507 15.8481 244.382 14.9519 244.382 13.8111V2.03704C244.382 0.916667 243.466 0 242.347 0L236.364 0ZM236.364 13.8111V2.03704H242.347V13.8111H236.364Z" fill="#232323"/>
<path d="M251.01 0C249.891 0 248.975 0.916667 248.975 2.03704V13.8111C248.975 14.9519 249.85 15.8481 251.01 15.8481H256.993C258.152 15.8481 259.027 14.9519 259.027 13.8111V2.03704C259.027 0.916667 258.112 0 256.993 0L251.01 0ZM251.01 13.8111V2.03704H256.993V13.8111H251.01Z" fill="#232323"/>
<path d="M265.656 0C264.536 0 263.621 0.916667 263.621 2.03704V13.8111C263.621 14.9519 264.496 15.8481 265.656 15.8481H271.638C272.798 15.8481 273.673 14.9519 273.673 13.8111V2.03704C273.673 0.916667 272.757 0 271.638 0L265.656 0ZM265.656 13.8111V2.03704H271.638V13.8111H265.656Z" fill="#232323"/>
</svg>
