<svg width="63" height="42" viewBox="0 0 63 42" fill="none" xmlns="http://www.w3.org/2000/svg">
<rect width="63" height="42" rx="2" fill="black"/>
<rect x="0.5" y="0.5" width="62" height="41" rx="1.5" stroke="white" stroke-opacity="0.64"/>
<path fill-rule="evenodd" clip-rule="evenodd" d="M62.3934 31.15V35.714H56.5974L54.4554 33.208L52.2294 35.714H35.7654V22.372H30.3334L37.1234 7H43.7314L45.3274 10.486V7H53.5314L54.9034 10.654L56.2474 7H62.3934V9.16998H57.6474L55.4914 14.854L54.9174 16.394L52.1594 9.16998H47.4134V20.37L42.4854 9.16998H38.6634L33.7074 20.37H36.9554L37.8234 18.214H43.2554L44.1234 20.37H47.4134H50.2694V13.076L50.2554 11.606L50.8154 13.076L53.5454 20.37H56.2614L59.0054 13.076L59.5374 11.62V20.37H62.3934V24.752L59.2294 27.93L62.3934 31.15ZM38.0614 33.544V22.3859H47.4134V24.808H40.9174V26.768H47.2874V29.176H40.9174V31.1219H47.4134V33.544H38.0614ZM61.5254 33.544H57.8154L54.4274 29.904L51.0254 33.544H47.4134L52.6354 27.986L47.4134 22.3859H51.1374L54.4974 26.012L57.8714 22.3859H61.5254L56.2894 27.944L61.5254 33.544Z" fill="white"/>
<path d="M40.5394 11.564L39.9794 12.964L38.8174 15.792H42.2614L41.0994 12.964L40.5394 11.564Z" fill="white"/>
</svg>
