<svg width="63" height="42" viewBox="0 0 63 42" fill="none" xmlns="http://www.w3.org/2000/svg">
<rect width="63" height="42" rx="2" fill="white" fill-opacity="0.64"/>
<rect x="0.5" y="0.5" width="62" height="41" rx="1.5" stroke="white" stroke-opacity="0.64"/>
<path fill-rule="evenodd" clip-rule="evenodd" d="M62.3933 31.15V35.714H56.5973L54.4553 33.208L52.2293 35.714H35.7653V22.372H30.3333L37.1234 7H43.7313L45.3273 10.486V7H53.5313L54.9033 10.654L56.2473 7H62.3933V9.16998H57.6473L55.4913 14.854L54.9173 16.394L52.1594 9.16998H47.4134V20.37L42.4853 9.16998H38.6634L33.7073 20.37H36.9554L37.8234 18.214H43.2554L44.1233 20.37H47.4134H50.2694V13.076L50.2553 11.606L50.8154 13.076L53.5454 20.37H56.2613L59.0054 13.076L59.5373 11.62V20.37H62.3933V24.752L59.2293 27.93L62.3933 31.15ZM38.0613 33.544V22.3859H47.4134V24.808H40.9173V26.768H47.2874V29.176H40.9173V31.1219H47.4134V33.544H38.0613ZM61.5254 33.544H57.8153L54.4274 29.904L51.0254 33.544H47.4134L52.6353 27.986L47.4134 22.3859H51.1373L54.4973 26.012L57.8714 22.3859H61.5254L56.2893 27.944L61.5254 33.544Z" fill="black"/>
<path d="M40.5393 11.564L39.9794 12.964L38.8173 15.792H42.2613L41.0993 12.964L40.5393 11.564Z" fill="black"/>
</svg>
