<svg width="141" height="30" viewBox="0 0 141 30" fill="none" xmlns="http://www.w3.org/2000/svg">
<g filter="url(#filter0_d_322_1490)">
<g clip-path="url(#clip0_322_1490)">
<path d="M4 3.99998H136.018V26H4V3.99998Z" fill="#004C8F"/>
<path d="M26.0046 3.99999H136.018V26H26.0046V3.99999Z" fill="#004C8F"/>
<path d="M33.0022 20.2069V9.7977H36.4229V13.3103H39.6413V9.7977H43.0482V20.2069H39.6137V16.1655H36.3953V20.2069H32.9746" fill="white"/>
<path d="M48.4829 12.3816H49.3702C49.8475 12.3579 50.3249 12.4249 50.7771 12.5793C51.0018 12.6798 51.1954 12.8385 51.338 13.0391C51.4989 13.2901 51.6156 13.567 51.6829 13.8575C51.7632 14.2057 51.8033 14.5621 51.8024 14.9195C51.8198 15.4424 51.7306 15.9633 51.5403 16.4506C51.3974 16.8222 51.1334 17.1348 50.7909 17.3379C50.3406 17.5499 49.844 17.6448 49.3472 17.6138H48.4829V12.3816ZM49.807 20.1977C50.4878 20.2132 51.1678 20.1406 51.83 19.9816C52.3052 19.874 52.759 19.6875 53.1725 19.4299C53.5411 19.1798 53.8645 18.8688 54.1288 18.5103C54.4508 18.0472 54.6989 17.5369 54.8645 16.9977C55.0748 16.3239 55.1757 15.6207 55.1633 14.9149C55.1939 13.9014 54.966 12.8967 54.5013 11.9954C54.0946 11.2395 53.4474 10.6409 52.6622 10.2942C51.7867 9.93937 50.848 9.76728 49.9036 9.78851H45.1357V20.2023H49.807" fill="white"/>
<path d="M56.731 20.2069V9.7977H64.8505V12.3632H60.1103V14.0322H63.9034V16.5287H60.1103V20.2069H56.731Z" fill="white"/>
<path d="M76.3218 13.7747H73.1035C73.0693 13.3143 72.8701 12.8817 72.5425 12.5563C72.213 12.2637 71.7828 12.1105 71.3425 12.1287C71.059 12.1215 70.7777 12.181 70.5214 12.3024C70.265 12.4238 70.0408 12.6037 69.8667 12.8276C69.4851 13.2873 69.292 14.0598 69.292 15.1264C69.2677 15.6871 69.3504 16.2473 69.5356 16.777C69.6722 17.121 69.9093 17.4159 70.2161 17.623C70.5447 17.8186 70.9238 17.9129 71.3058 17.8942C71.5328 17.909 71.7606 17.878 71.9754 17.803C72.1903 17.7279 72.3878 17.6104 72.5563 17.4575C72.898 17.1175 73.0984 16.6609 73.1173 16.1793H76.4092C76.3578 16.7393 76.2262 17.289 76.0184 17.8115C75.7976 18.3039 75.4856 18.7501 75.0989 19.1264C74.6538 19.5763 74.1177 19.9259 73.5265 20.1517C72.8521 20.4036 72.1357 20.5238 71.4161 20.5057C70.6708 20.5157 69.9293 20.3991 69.223 20.1609C68.5927 19.9504 68.0133 19.6106 67.5219 19.1632C67.0713 18.739 66.7047 18.2336 66.4414 17.6736C66.0686 16.8575 65.8832 15.9683 65.8989 15.0713C65.8919 14.3014 66.0243 13.5365 66.2897 12.8138C66.5292 12.1587 66.9 11.5595 67.3793 11.0529C67.816 10.6009 68.338 10.2399 68.915 9.99079C69.6648 9.67821 70.4705 9.52177 71.2828 9.53102C72.006 9.52514 72.7252 9.63854 73.4115 9.86666C74.0241 10.0587 74.5809 10.3963 75.0345 10.8506C75.4627 11.2776 75.7991 11.7876 76.023 12.3494C76.2024 12.8103 76.3124 13.2953 76.3494 13.7885" fill="white"/>
<path d="M87.2918 12.1379C87.6107 12.1238 87.9301 12.147 88.2436 12.2069C88.4335 12.2601 88.6022 12.3709 88.7263 12.5241C88.8492 12.6779 88.9143 12.8699 88.9102 13.0667C88.9138 13.1916 88.8883 13.3156 88.8356 13.4289C88.7829 13.5423 88.7046 13.6418 88.6068 13.7195C88.2731 13.9221 87.8826 14.0108 87.4941 13.9724H86.2022V12.1333L87.2918 12.1379ZM88.1516 20.2069C88.7254 20.2218 89.2994 20.1849 89.8666 20.0965C90.2167 20.0103 90.5572 19.8886 90.8827 19.7333C91.1656 19.6019 91.425 19.4249 91.6505 19.2092C91.9213 18.9539 92.1291 18.6391 92.2574 18.2897C92.4043 17.9036 92.4776 17.4935 92.4735 17.0805C92.4965 16.5215 92.3349 15.9706 92.0137 15.5126C91.6976 15.0923 91.2488 14.791 90.7401 14.6575C91.1472 14.4488 91.4902 14.1339 91.733 13.7462C91.9758 13.3586 92.1093 12.9125 92.1194 12.4552C92.1332 12.028 92.03 11.6052 91.8209 11.2325C91.6119 10.8597 91.3049 10.5512 90.9332 10.3402C90.3202 9.96628 89.3715 9.78084 88.0872 9.7839H82.8918V20.1931L88.1516 20.2069ZM87.5999 15.8437C88.0616 15.7923 88.5281 15.8821 88.9378 16.1011C89.0407 16.1922 89.123 16.304 89.1794 16.4292C89.2358 16.5545 89.265 16.6902 89.265 16.8276C89.265 16.9649 89.2358 17.1007 89.1794 17.2259C89.123 17.3512 89.0407 17.463 88.9378 17.554C88.5372 17.7799 88.0748 17.8717 87.6183 17.8161H86.239V15.8437H87.6183" fill="white"/>
<path d="M99.9955 16.708H97.8162L98.892 12.9195L99.9955 16.708ZM96.7771 20.2069L97.1725 18.8276H100.579L100.979 20.2069H104.382L100.648 9.7977H97.1725L93.4346 20.2069H96.7771Z" fill="white"/>
<path d="M105.839 20.2069V9.7977H109.03L112.63 15.3701V9.7977H115.908V20.2069H112.653L109.131 14.7678V20.2069H105.839Z" fill="white"/>
<path d="M118.193 20.2069V9.7977H121.508V13.2276L124.607 9.7977H128.625L124.814 13.7149L129.025 20.2069H124.929L122.423 16.069L121.503 16.9655V20.2161H118.188" fill="white"/>
<path d="M4 3.99998H26V26H4V3.99998Z" fill="#ED232A"/>
<path d="M7.85278 7.85287H22.1516V22.1517H7.85278V7.85287Z" fill="white"/>
<path d="M13.8989 3.99999H16.1012V26H13.8989V3.99999Z" fill="white"/>
<path d="M4 13.9034H26V16.1011H4V13.9034Z" fill="white"/>
<path d="M11.7012 11.7011H18.3035V18.3034H11.7012V11.7011Z" fill="#004C8F"/>
</g>
</g>
<defs>
<filter id="filter0_d_322_1490" x="0" y="0" width="140.018" height="30" filterUnits="userSpaceOnUse" color-interpolation-filters="sRGB">
<feFlood flood-opacity="0" result="BackgroundImageFix"/>
<feColorMatrix in="SourceAlpha" type="matrix" values="0 0 0 0 0 0 0 0 0 0 0 0 0 0 0 0 0 0 127 0" result="hardAlpha"/>
<feOffset/>
<feGaussianBlur stdDeviation="2"/>
<feComposite in2="hardAlpha" operator="out"/>
<feColorMatrix type="matrix" values="0 0 0 0 0 0 0 0 0 0 0 0 0 0 0 0 0 0 0.7 0"/>
<feBlend mode="normal" in2="BackgroundImageFix" result="effect1_dropShadow_322_1490"/>
<feBlend mode="normal" in="SourceGraphic" in2="effect1_dropShadow_322_1490" result="shape"/>
</filter>
<clipPath id="clip0_322_1490">
<rect x="4" y="4" width="132.018" height="22" rx="5" fill="white"/>
</clipPath>
</defs>
</svg>
