<svg width="102" height="72" viewBox="0 0 102 72" fill="none" xmlns="http://www.w3.org/2000/svg">
<g filter="url(#filter0_d_322_1522)">
<path d="M8.7774 46.01C8.7774 48.7715 11.016 51.01 13.7774 51.01H87.944C90.7054 51.01 92.944 48.7715 92.944 46.01V25.9899C92.944 23.2285 90.7054 20.9899 87.944 20.9899H13.7774C11.016 20.9899 8.7774 23.2285 8.7774 25.9899V46.01Z" fill="#9D1D27"/>
</g>
<path d="M15.0847 27.3203H32.3408V44.6223H15.0847V27.3203ZM33.7999 25.8612H13.6371V46.0699H33.7884V25.8612H33.7999Z" fill="#FEFEFE"/>
<path d="M16.9919 32.5936H30.4337V29.2274H16.9919V32.5936ZM16.9919 42.7037H20.3466V39.326H16.9919V42.7037ZM16.9919 37.6486H25.3787V34.2709H16.9919V37.6486Z" fill="#FEFEFE"/>
<path d="M42.3246 30.3762V34.7305H43.5309C44.8521 34.7305 45.1623 34.225 45.1623 32.5361C45.1623 30.7324 44.967 30.3762 43.3815 30.3762H42.3246ZM43.7147 29.2389C45.7942 29.2389 46.5409 30.1465 46.5409 32.5132C46.5409 34.7994 45.7482 35.8564 43.7032 35.8564H40.9574V29.2389H43.7147ZM38.315 35.8564H39.6822V29.2389H38.315V35.8564ZM47.6094 29.2389H52.2509V30.3762H48.9651V31.9272H51.8373V33.0646H48.9651V35.8679H47.5979L47.6094 29.2389ZM58.6156 33.685C58.5237 34.9832 57.8114 36.0172 55.7664 36.0172C53.7789 36.0172 52.7678 35.0292 52.7678 32.5936C52.7678 30.2039 53.7214 29.101 55.7664 29.101C57.3863 29.101 58.3859 29.7903 58.6041 31.3068H57.237C57.0761 30.7209 56.8923 30.2614 55.7664 30.2614C54.6405 30.2614 54.1465 30.9392 54.1465 32.7085C54.1465 34.0871 54.5141 34.8569 55.7894 34.8569C56.7085 34.8569 57.1336 34.5696 57.2485 33.6965H58.6156V33.685ZM62.2461 29.2389H66.8875V30.3762H63.6132V31.9272H66.4854V33.0646H63.6132V35.8679H62.2461V29.2389ZM67.7836 35.8564H69.1508V29.2389H67.7836V35.8564ZM71.7932 30.3762V32.1225H73.0225C74.1139 32.1225 74.4931 32.0076 74.4931 31.1805C74.4931 30.5141 74.2633 30.3762 73.1144 30.3762H71.7932ZM70.4261 29.2389H73.2982C74.6769 29.2389 75.8717 29.2733 75.8717 31.2264C75.8717 32.5246 75.3318 32.9957 74.585 33.1795L76.3083 35.8679H74.6424L73.0225 33.2599H71.7932V35.8679H70.4261V29.2389ZM78.0201 33.7769C78.0776 34.4662 78.181 34.8339 79.4907 34.8339C80.18 34.8339 80.6855 34.7305 80.6855 34.0526C80.6855 33.6505 80.5017 33.4208 79.9158 33.2714L78.3073 32.8348C77.5031 32.6166 76.7908 32.2374 76.7908 31.0196C76.7908 30.066 77.2274 29.0665 79.2724 29.0665C81.214 29.0665 81.8229 29.9741 81.8574 31.1575H80.5017C80.4328 30.606 80.4098 30.2384 79.2264 30.2384C78.5371 30.2384 78.181 30.3648 78.181 30.8932C78.181 31.3758 78.4682 31.5136 78.8473 31.617L80.3179 32.0191C81.2599 32.2719 82.0527 32.6395 82.0527 33.9607C82.0527 35.8219 80.4557 36.0057 79.4677 36.0057C77.3078 36.0057 76.7219 35.1556 76.6415 33.7769H78.0201ZM84.3849 30.3992H82.3973V29.2389H87.7396V30.3992H85.7635V35.8564H84.3964V30.3992H84.3849ZM39.6822 42.8875V44.6338H40.9115C42.1522 44.6338 42.428 44.5419 42.428 43.7836C42.428 42.9909 42.1752 42.8875 41.1757 42.8875H39.6822ZM39.6822 40.2795V41.7501H41.2102C42.0259 41.7501 42.2327 41.6467 42.2327 40.9689C42.2327 40.4174 42.1063 40.2795 40.9574 40.2795H39.6822ZM41.5433 39.1422C42.8416 39.1422 43.5539 39.6017 43.5539 40.8655C43.5539 41.888 43.0828 42.1063 42.7956 42.2211C43.6113 42.5428 43.8066 43.1632 43.8066 43.8526C43.8066 44.944 43.3126 45.7597 41.4859 45.7597H38.315V39.1307L41.5433 39.1422ZM47.5864 43.5194L46.6903 43.6687C46.1963 43.7377 45.8516 43.8411 45.8516 44.3581C45.8516 44.7257 46.0354 44.9325 46.6099 44.9325C47.3911 44.9325 47.5864 44.5074 47.5864 43.91V43.5194ZM44.7142 42.3705C44.7832 41.1182 45.4955 40.7736 46.8052 40.7736C48.1494 40.7736 48.8617 41.1297 48.8617 42.1982V45.7597H47.6439V45.392C47.3911 45.6448 46.9201 45.8861 46.1503 45.8861C44.99 45.8861 44.5764 45.3691 44.5764 44.5419C44.5764 43.4619 45.2772 43.0483 45.9895 42.9449L47.5979 42.6922V42.3935C47.5979 41.9339 47.3681 41.8076 46.7707 41.8076C46.1388 41.8076 46.001 41.9569 45.9435 42.3705H44.7142ZM53.1125 42.9679C53.1125 42.2211 53.101 41.8305 52.2853 41.8305C51.3662 41.8305 51.2743 42.3131 51.2743 43.4619V45.7712H49.9991V40.8999H51.2169V41.5318C51.5615 41.0608 51.9407 40.7851 52.8368 40.7851C54.0776 40.7851 54.3993 41.325 54.3993 42.7956V45.7712H53.1125V42.9679ZM55.6286 39.1422H56.9038V42.7037L58.4778 40.8999H60.0517L58.3514 42.7496L60.1206 45.7712H58.6386L57.4553 43.6572L56.9038 44.2317V45.7712H55.6171L55.6286 39.1422Z" fill="#FEFEFE"/>
<defs>
<filter id="filter0_d_322_1522" x="4.7774" y="16.9899" width="92.1666" height="38.0201" filterUnits="userSpaceOnUse" color-interpolation-filters="sRGB">
<feFlood flood-opacity="0" result="BackgroundImageFix"/>
<feColorMatrix in="SourceAlpha" type="matrix" values="0 0 0 0 0 0 0 0 0 0 0 0 0 0 0 0 0 0 127 0" result="hardAlpha"/>
<feOffset/>
<feGaussianBlur stdDeviation="2"/>
<feComposite in2="hardAlpha" operator="out"/>
<feColorMatrix type="matrix" values="0 0 0 0 0 0 0 0 0 0 0 0 0 0 0 0 0 0 0.25 0"/>
<feBlend mode="normal" in2="BackgroundImageFix" result="effect1_dropShadow_322_1522"/>
<feBlend mode="normal" in="SourceGraphic" in2="effect1_dropShadow_322_1522" result="shape"/>
</filter>
</defs>
</svg>
