<svg width="49" height="49" viewBox="0 0 49 49" fill="none" xmlns="http://www.w3.org/2000/svg">
<g filter="url(#filter0_d_322_1508)">
<circle cx="24.5" cy="24.5" r="20.5" transform="rotate(-90 24.5 24.5)" fill="white"/>
<path fill-rule="evenodd" clip-rule="evenodd" d="M37.215 24.4858C37.2095 22.0267 36.4865 19.6228 35.135 17.5694C33.7834 15.516 31.8621 13.9025 29.6071 12.9274C27.3521 11.9522 24.8617 11.6577 22.4418 12.0801C20.022 12.5025 17.7781 13.6235 15.9858 15.3051C14.1936 16.9868 12.9311 19.156 12.3535 21.5462C11.7759 23.9364 11.9083 26.4434 12.7345 28.7593C13.5607 31.0751 15.0446 33.0989 17.004 34.582C18.9633 36.0651 21.3128 36.9429 23.7637 37.1075V27.3326C23.0721 27.1355 22.4751 26.6947 22.0826 26.0915C21.6902 25.4883 21.5288 24.7635 21.6282 24.0505C21.7276 23.3376 22.0811 22.6847 22.6236 22.2122C23.166 21.7397 23.8608 21.4794 24.5799 21.4794C25.2989 21.4794 25.9937 21.7397 26.5361 22.2122C27.0786 22.6847 27.4321 23.3376 27.5315 24.0505C27.6309 24.7635 27.4695 25.4883 27.0771 26.0915C26.6846 26.6947 26.0876 27.1355 25.3961 27.3326V37.1075C28.5982 36.8986 31.601 35.4781 33.7954 33.1342C35.9898 30.7902 37.2113 27.6983 37.2122 24.4858H37.215Z" fill="#00B6F0"/>
</g>
<defs>
<filter id="filter0_d_322_1508" x="0" y="0" width="49" height="49" filterUnits="userSpaceOnUse" color-interpolation-filters="sRGB">
<feFlood flood-opacity="0" result="BackgroundImageFix"/>
<feColorMatrix in="SourceAlpha" type="matrix" values="0 0 0 0 0 0 0 0 0 0 0 0 0 0 0 0 0 0 127 0" result="hardAlpha"/>
<feOffset/>
<feGaussianBlur stdDeviation="2"/>
<feComposite in2="hardAlpha" operator="out"/>
<feColorMatrix type="matrix" values="0 0 0 0 0 0 0 0 0 0 0 0 0 0 0 0 0 0 0.25 0"/>
<feBlend mode="normal" in2="BackgroundImageFix" result="effect1_dropShadow_322_1508"/>
<feBlend mode="normal" in="SourceGraphic" in2="effect1_dropShadow_322_1508" result="shape"/>
</filter>
</defs>
</svg>
